<?xml version="1.0" encoding="utf-8"?>
<!-- Generator: Adobe Illustrator 23.0.0, SVG Export Plug-In . SVG Version: 6.00 Build 0)  -->
<svg version="1.1" id="Capa_1" xmlns="http://www.w3.org/2000/svg" xmlns:xlink="http://www.w3.org/1999/xlink" x="0px" y="0px"
	 viewBox="0 0 306 226" style="enable-background:new 0 0 306 226;" xml:space="preserve">
<style type="text/css">
	.st0{fill:#060505;}
	.st1{fill:#E0B893;}
	.st2{fill:#FFFFFF;}
	.st3{fill:#E53B07;}
	.st4{fill:#DFB893;}
</style>
<g>
	<path class="st0" d="M251.9,118.3c3.1,0.5,6.1,1.3,9.2,2c0.7,0.2,1.3,0.2,2-0.1c2.5-0.9,5.1-0.1,7.6-0.1c0.2,0,0.5,0.2,0.7,0.2
		c3.5,1.1,6.3,3.3,8.8,6c2.6,2.9,4.6,6.1,6.1,9.7c5.6,13.4,6.4,27.2,2.8,41.2c-1.3,5.2-3.5,10-6.8,14.2c-2.2,2.8-4.8,5-8.1,6.3
		c-1.1,0.4-2.2,0.7-3.3,1c-0.1,0.5,0.2,0.7,0.4,0.9c2.6,3.3,5.2,6.5,7.7,9.8c1.3,1.7,1.3,2.4-0.4,3.8c-1.7,1.4-3.7,2.2-5.7,2.8
		c-4.9,1.3-9.9,1.5-15,0.7c-2.4-0.4-4.7-1-6.8-2.3c-0.5-0.3-1.2-0.6-1.1-1.4c0.1-0.7,0.7-0.8,1.2-1.1c0.9-0.4,2-0.6,3-1.4
		c-0.9-0.2-1.5-0.4-2.2-0.6c-12.3-3-24.7-5.9-37-8.9c-4.9-1.2-9.8-2.4-14.7-3.5c-0.8-0.2-1.4-0.4-2.2,0.4
		c-5.3,5.9-10.7,11.7-17,16.6c-0.4,0.3-0.9,0.7-1,1.3c-0.2,0.8-0.8,0.9-1.5,0.5c-1.1-0.7-2.2-1.3-3.1-2.1c-1-0.8-2.6-0.9-2.8-2.5
		c0-0.1-0.4-0.2-0.6-0.3c-4.1-1.5-7.2-4.4-9.9-7.7c-0.3-0.3-0.5-0.8-0.6-1.2c-0.2-0.4,0-0.9,0.4-1.2c0.3-0.2,0.7-0.3,1,0
		c0.6,0.6,1.2,0.3,1.8,0.2c1-0.2,2.1-0.6,3.1-0.7c1.7-0.3,2.8-1.4,3.3-3c1.3-4.1,2.7-8.3,4-12.4c0.3-1,0.3-1.5-0.6-2.3
		c-2.5-2.1-4.6-4.5-6.5-7.1c-1.8-2.6-3.3-5.3-4.1-8.4c-1.5-6.1,0.5-11.3,5.7-14.7c0.8-0.5,1.6-0.9,2.4-1.4c-0.1-0.5-0.4-0.5-0.7-0.7
		c-6.2-3.6-9-9-9.2-16.1c-0.1-4.7,1.1-9.1,2.9-13.4c2.9-6.9,7.7-12.5,12.5-18c0.2-0.2,0.6,0,0.7-0.6c-2-3.2-3.9-6.6-5.6-10.2
		c-5.2-11.1-8.6-22.7-10.9-34.6c-1.2-6-2-12-2.6-18.1c-0.2-2,0.3-3.6,1.9-4.9c3.4-2.8,7.1-5.2,11-7.3c0.5-0.3,1.2-0.4,1.6-1
		c-0.2-0.1-0.3-0.2-0.5-0.2c-4-0.9-8-1.2-12-0.5c-0.5,0.1-1,0.3-1.5,0.3c-0.5,0.1-1,0-1.2-0.6c-0.1-0.6,0.2-0.9,0.7-1.2
		c3.4-1.8,6.7-3.6,10.3-5.1c14.2-5.8,29.1-8.1,44.4-8.5c11.7-0.3,23.3,0.7,34.7,2.8c13.2,2.5,26,6.4,38.2,12.1
		c0.6,0.3,1.2,0.6,1.9,0.9c1,0.5,1.7,1.5,2.4,2.4c0.5,0.7-0.6,1-0.6,1.6c0,0.4,0,0.8,0,1.1c-0.1,12.9-0.7,25.7-2.3,38.4
		c-0.1,0.6,0,1.2-0.4,1.6c-0.7,0.7-0.6,1.5-0.7,2.2c-0.5,3.2-1.1,6.5-2.6,9.4c-1.6,2.9-3.1,5.9-4.9,8.7c-0.3,0.4-0.5,1-1,1.1
		c-0.9,0.1-0.9,0.6-1,1.3c-0.1,0.5-0.2,1-0.3,1.5c-0.7,3-1.7,5.9-3.5,8.5c-1.8,2.4-4,4.2-7.2,4c-0.4,0-0.7,0-1.1,0.3
		c-2.8,2.1-6,3.2-9.3,4c-1.6,0.4-3.2,1.1-4.7,1.8c-1.3,0.7-2.5,1.6-3.7,3C249.6,118.1,250.8,118.1,251.9,118.3z M196,120.9
		c1.3,2.7,1.6,5.5,1.1,8.4c-0.2,1.4,0.3,2.3,1.1,3.2c2,2.1,4.5,3.2,7.2,3.9c7.5,1.9,14.8,1.2,22-1.6c0.8-0.3,1.2-0.7,1.5-1.5
		c1.6-5.4,5.2-9.4,9.3-13.1c1.4-1.3,3.2-1.7,5-1.7c1.2,0,1.9-0.2,2.2-1.5c0.1-0.4,0.3-0.9,0.7-1c2.3-0.5,3.9-2.3,6-3.2
		c1.7-0.7,3.4-1.3,5.2-1.8c2.2-0.6,4.3-1.4,6.3-2.5c0.6-0.3,1.1-0.7,0.6-1.5c-1.4-2.2-1.4-4.6-1.7-7.1c0-0.2-0.1-0.4-0.1-0.5
		c-0.5-0.2-0.7,0.2-0.8,0.5c-0.7,1.4-1.5,2.8-2.2,4.2c-0.4,0.9-1.1,1.1-2,0.8c-1.2-0.5-2.4-0.9-3.4-1.9c-1.1-1.2-1.2-1.3-0.4-2.6
		c1.1-1.7,2.2-3.4,3.2-5.1c4.7-8,7.9-16.5,8.7-25.8c0.3-3.4,0.5-6.9,0.7-10.3c0.3-5.2,2-10,5.4-14c2.9-3.4,6.6-5.3,11.1-5.8
		c1.6-0.2,3.3-0.3,4.9-0.2c0.8,0,1.3-0.2,1.3-1.1c0-2.5,0-4.9,0-7.4c0-0.9-0.6-1-1.2-1.2c-2.5-0.7-5-1.2-7.6-1.5
		c-5.4-0.8-10.8-1.3-16.3-1.4c-8.9-0.1-17.4,1.8-25.5,5.6c-5,2.3-9.8,4.8-15.1,6.4c-3.3,1-6.7,1.9-10.1,1.9c-3.8,0-7.5-0.8-11-2.2
		c-3.1-1.2-6-2.9-9-4.4c-4.7-2.4-9.5-4.6-14.5-6.2c-1-0.3-1.9-0.2-2.9,0.2c-4.9,2.4-9.5,5.2-13.7,8.6c-0.9,0.7-1.2,1.4-1.1,2.7
		c0.4,3.7,0.8,7.5,1.3,11.1c0.6,0.4,0.8-0.1,1.1-0.2c1.1-0.4,1.8-0.1,2.7,1.1c1.5,2,2.5,4.3,3.2,6.6c1.8,6,3.2,12.1,4.6,18.2
		c0.3,1.3,0.2,2.6-0.4,3.9c-0.6,1.4-1.2,2.8-1.8,4.2c-0.3,0.6-0.3,1.2,0,1.8c3.4,8,7.2,15.6,12.7,22.3c3,3.6,6.4,6.7,10.7,8.8
		c6.1,2.9,12.4,1.8,17.2-2.8c0.3-0.3,0.7-0.6,0.9-0.9c0.6-0.7,1.2-0.8,2-0.5c3.9,1.1,7.9,2,12,2.4c1.5,0.2,3,0.2,4.5,0.3
		c0.5,0,1,0,1,0.8c0,0.8-0.5,0.8-1,0.8c-3.8,0.1-7.5-0.5-11.2-1.3c-1.6-0.3-3.2-0.7-4.8-1.2c-1-0.3-1.6-0.1-2.3,0.6
		c-2.9,2.7-6.2,4.5-10.1,5c-2.1,0.3-4.1-0.2-6.1-0.7c-0.5-0.1-1-0.5-1.7-0.2C195.5,120,195.8,120.5,196,120.9z M241.1,120.2
		c-0.8,0.1-1.5,0.6-2.1,1.2c-2.6,2.5-5.2,5-6.9,8.2c-0.8,1.4-1.4,3-1.8,4.5c-0.2,0.8-0.6,1.5-1.5,1.8c-7.8,3.1-15.8,4.2-23.9,1.9
		c-3.6-1-6.8-2.7-9-5.9c-0.4-0.6-0.6-1.1-0.5-1.9c0.3-1.7,0.2-3.5,0.1-5.4c-1.5,0.2-2.6,1-3.6,1.8c-4,2.9-7.1,6.7-10,10.7
		c-3.3,4.6-6.1,9.5-7.9,14.9c-0.2,0.7-0.6,1.1-1.4,1.4c-2,0.8-3.6,2-5,3.6c-2.6,3.3-2.9,7-1.8,10.9c1.1,4.1,3.5,7.5,6.3,10.6
		c6.7,7.4,15,12.4,24,16.2c2.8,1.2,5.8,1.5,8.7,2.3c2.7,0.7,5.5,1.3,8.2,2c1,0.3,1.6,0,2.2-0.8c2.9-3.6,5.5-7.5,7.8-11.5
		c4.8-8.2,8.8-16.8,11.8-25.8c2.2-6.7,3.6-13.6,5.1-20.4c0.6-2.8,1-5.7,1.7-8.5c1-4.1,2.3-6.7,6.3-12.3
		C245.6,119.9,243.3,120,241.1,120.2z M289.2,166c0.7-11.8-0.8-23.2-6.8-33.6c-1.6-2.8-3.6-5.3-6.1-7.3c-4-3.3-8.5-4.5-13.5-2.9
		c-0.5,0.2-0.9,0-1.4-0.1c-2.9-0.6-5.7-1.4-8.7-1.3c-1.4,0.1-2.5,0.6-3.8,0.9c-0.5,0.1-0.6,0.6-0.9,0.9c-2.6,3.4-4.2,7.3-4.9,11.5
		c-0.9,4.7-1.8,9.5-2.9,14.2c-0.2,1,0,1.3,0.9,1.7c3.7,1.4,7.5,2.9,11.2,4.4c1.6,0.6,1.7,0.6,1.7-1.1c0-6-0.1-12-0.1-17.9
		c0-0.5,0-1,0.1-1.5c0-0.3,0.3-0.5,0.7-0.5c0.4,0,0.6,0.2,0.7,0.5c0.1,0.4,0.1,0.9,0.1,1.3c0,9.9,0.1,19.9,0.1,29.8
		c0,1.4,0.1,2.7,0.4,4.3c0.8-0.4,1.6-0.2,2.4,0.1c2.3,0.9,4.7,0.7,7.1,0.7c0.7,0,0.8-0.4,1-0.9c1.7-4.7,3.5-9.4,5.2-14.1
		c2-5.3,3.9-10.6,5.9-15.9c0.2-0.6,0.4-1.8,1.3-1.5c1.1,0.4,0.4,1.4,0.1,2.1c-2.3,6.2-4.6,12.3-6.8,18.5c-0.1,0.2-0.1,0.3-0.2,0.5
		c-0.4,0.8-0.2,1.4,0.8,1.7c2.4,0.9,4.7,1.8,7,2.7c3,1.1,6,2.2,9,3.3c0.2,0.1,0.4,0,0.6,0C289.1,166.3,289.2,166.2,289.2,166z
		 M169.6,117.2c1.7,0.7,2.2,2.2,2.5,3.8c0.5,2.1,0.4,4.3-0.1,6.4c-0.3,1.3-0.4,2.6-0.5,3.9c-0.2,1.6,0.1,3.1,0.9,4.5
		c1.9,3,1.7,5.9-0.1,8.9c-0.5,0.8-0.9,1.7-1.4,2.5c-0.5,0.7-0.3,1.1,0.4,1.5c0.5,0.3,1,0.6,1.4,0.8c0.5-0.1,0.5-0.4,0.6-0.7
		c1.8-4.3,4.1-8.4,6.8-12.2c0.5-0.7,0.7-1.4,0.6-2.3c-1.1-8.6-2.1-17.2-3.1-25.8c0-0.4-0.2-0.7-0.3-1.4
		C174.3,110.4,171.8,113.7,169.6,117.2z M267.6,170c-0.4,1.2-1.1,1.6-2.2,1.6c-2.7,0-5.4,0.2-8-0.9c-1.1-0.5-1.3-0.3-1.7,1
		c-1.2,4.2,1.1,8.4,5.5,9.7c4.3,1.3,9.2-0.1,12.2-3.8c1.4-1.7,1.4-3.5,1.4-5.4c0-2.4-1.3-4.3-3.2-5.7c-0.6-0.4-1.3-0.8-2.1-1.3
		C268.8,166.8,268.1,168.3,267.6,170z M182.5,132.7c0.5,0.4,0.7-0.1,0.9-0.3c1.6-2,3.4-3.9,5.4-5.6c1.5-1.3,3.1-2.5,4.9-3.5
		c1.2-0.6,1.3-0.7,0.7-2c-0.9-2-1.9-3.8-3.9-5.1c-3.8-2.5-6.7-5.9-9.4-9.5c-0.4-0.6-0.9-1.2-1.4-1.8c-0.2,0-0.3,0.1-0.5,0.1
		C180.2,114.4,181.5,123.5,182.5,132.7z M264.7,104.4c0.6,2.5,2,3.2,4.5,2.3c1.9-0.7,3.1-2.1,4-3.8c1.9-3.2,2.8-6.7,3.1-10.3
		c0.1-1-0.2-2.1-0.6-3.1c-0.9-1.8-2.4-2.1-4-0.9c-0.6,0.4-1.2,1.5-2.2,0.5c-0.3-0.3-0.7,0.1-0.9,0.5c-1.4,1.9-2.8,3.8-4.1,5.8
		c-0.6,1-0.4,2.2-0.4,3.7C264.1,100.6,264.2,102.5,264.7,104.4z M171.2,143.1c0.9-1.6,1.3-3.5,0.3-5.1c-2.4-3.8-1.9-7.8-1.1-11.8
		c0.4-1.9,0.3-3.9-0.3-5.8c-0.2-0.6-0.4-1.3-1.2-1.7c-1.6,2.5-2.6,5.3-3.4,8.1c-1.2,4-1.4,8.1-0.6,12.3c0.4,2.2,1.3,4.2,2.7,6
		c0.4,0.6,0.9,1.2,1.7,1.6C169.9,145.4,170.5,144.3,171.2,143.1z M277.6,90.7c0.1,0.3,0.1,0.7,0.5,0.7c0.3,0,0.6-0.2,0.7-0.5
		c1.9-3.1,3.6-6.3,5-9.7c0.5-1.2-0.2-2.1-1.4-2.3c-0.6-0.1-1.3,0-1.8,0.2c-3.5,1.4-6.1,3.9-8.6,6.6c-0.1,0.1,0,0.3-0.1,0.5
		C275.3,86.3,276.7,87.4,277.6,90.7z M271.4,163.2c2.3,0.8,4.5,1.6,6.8,2.4c3,1.1,6,2.2,9,3.2c0.4,0.1,0.7,0.3,1.1,0.3
		c0.1,0,0.4-0.1,0.5-0.2c0.1-0.2,0-0.4-0.2-0.5c-0.3-0.2-0.7-0.3-1-0.4c-5.2-1.8-10.4-3.7-15.5-5.8c-0.3-0.1-0.6-0.3-0.9-0.3
		c-0.4,0-0.5,0.3-0.6,0.6C270.7,163,271.1,163.1,271.4,163.2z M251,155.7c-3.2-1.3-6.4-2.5-9.6-3.8c-0.5-0.2-0.9-0.3-1.4-0.5
		c-0.4-0.1-0.6,0.1-0.6,0.4c0,0.3,0,0.6,0.4,0.7c4.7,1.1,9,3.2,13.8,4.2C252.7,156.4,251.9,156,251,155.7z"/>
	<path class="st1" d="M197.4,119.6c2,0.5,4,0.9,6.1,0.7c4-0.5,7.3-2.3,10.1-5c0.7-0.7,1.3-0.9,2.3-0.6c1.5,0.5,3.2,0.8,4.8,1.2
		c3.7,0.7,7.4,1.3,11.2,1.3c0.5,0,1,0,1-0.8c0-0.8-0.5-0.7-1-0.8c-1.5-0.1-3-0.1-4.5-0.3c-4.1-0.4-8.1-1.2-12-2.4
		c-0.8-0.2-1.5-0.2-2,0.5c-0.3,0.3-0.6,0.6-0.9,0.9c-4.8,4.5-11.1,5.7-17.2,2.8c-4.3-2-7.7-5.1-10.7-8.8
		c-5.6-6.7-9.4-14.4-12.7-22.3c-0.3-0.6-0.2-1.2,0-1.8c0.6-1.4,1.2-2.8,1.8-4.2c0.6-1.3,0.7-2.6,0.4-3.9c-1.4-6.1-2.8-12.2-4.6-18.2
		c-0.7-2.3-1.7-4.6-3.2-6.6c-0.9-1.2-1.6-1.5-2.7-1.1c-0.3,0.1-0.6,0.6-1.1,0.2c-0.5-3.6-0.9-7.3-1.3-11.1c-0.1-1.3,0.2-2,1.1-2.7
		c4.2-3.5,8.8-6.3,13.7-8.6c1-0.5,1.9-0.5,2.9-0.2c5.1,1.5,9.9,3.7,14.5,6.2c3,1.5,5.9,3.2,9,4.4c3.5,1.4,7.2,2.2,11,2.2
		c3.5,0,6.8-0.9,10.1-1.9c5.3-1.6,10.1-4.1,15.1-6.4c8.1-3.8,16.6-5.7,25.5-5.6c5.5,0.1,10.9,0.7,16.3,1.4c2.6,0.4,5.1,0.9,7.6,1.5
		c0.6,0.2,1.2,0.3,1.2,1.2c-0.1,2.5,0,4.9,0,7.4c0,0.9-0.5,1.2-1.3,1.1c-1.6-0.1-3.3,0-4.9,0.2c-4.5,0.5-8.2,2.4-11.1,5.8
		c-3.4,4-5.1,8.7-5.4,14c-0.2,3.4-0.4,6.9-0.7,10.3c-0.8,9.3-4,17.8-8.7,25.8c-1,1.7-2.1,3.4-3.2,5.1c-0.8,1.3-0.7,1.5,0.4,2.6
		c1,1,2.2,1.4,3.4,1.9c0.9,0.4,1.5,0.2,2-0.8c0.7-1.4,1.4-2.8,2.2-4.2c0.2-0.3,0.3-0.7,0.8-0.5c0,0.2,0.1,0.4,0.1,0.5
		c0.3,2.4,0.3,4.9,1.7,7.1c0.5,0.8,0,1.2-0.6,1.5c-2,1.1-4.1,1.9-6.3,2.5c-1.8,0.5-3.5,1-5.2,1.8c-2.1,0.9-3.7,2.6-6,3.2
		c-0.4,0.1-0.6,0.6-0.7,1c-0.3,1.2-1.1,1.5-2.2,1.5c-1.8,0-3.6,0.4-5,1.7c-4.1,3.7-7.6,7.7-9.3,13.1c-0.3,0.8-0.7,1.2-1.5,1.5
		c-7.2,2.8-14.5,3.4-22,1.6c-2.7-0.7-5.2-1.8-7.2-3.9c-0.9-0.9-1.4-1.8-1.1-3.2c0.5-2.9,0.3-5.7-1.1-8.4c-0.2-0.4-0.5-0.9-0.4-1.5
		C196.3,119.2,196.8,119.5,197.4,119.6z M218.6,96.2c-0.6,0-1.1,0-1.2,0.5c-0.1,0.7,0.5,0.9,1.1,1c1.8,0.3,3.6,0.5,5.4,0.8
		c2.6,0.4,5.2,0.7,7.8,1.1c0.2,0,0.4,0.1,0.6,0c0.4,0,0.8-0.2,0.8-0.6c0.1-0.5-0.2-0.7-0.6-0.8c-0.5-0.1-1.1-0.2-1.7-0.3
		c-0.5-0.1-1,0-1.4-0.6c2.3-1.1,4-2.8,5.2-5c0.3-0.6,0.8-0.5,1.3-0.5c2.1,0,4.2,0.3,6.4,0.4c0.5,0,1,0,1.5,0c0.3,0,0.6-0.2,0.7-0.5
		c1.4-3.5,3.6-6.5,5.2-9.8c0.1-0.2,0.2-0.4,0.4-0.7c0.5-0.7,0.3-1-0.6-1.3c-2.3-0.8-4.7-0.9-7-1.3c-6.5-1-13-1.9-19.5-2.9
		c-1.8-0.3-1.8-0.2-2.3,1.5c-0.9,3.5-1.8,6.9-2.6,10.4c-0.2,0.8-0.6,1.7,0.4,2.4c0.2,0.1,0.3,0.4,0.3,0.7c0.2,2,1.1,3.7,2.4,5.4
		C220,96.5,219.3,96.2,218.6,96.2z M183.7,95.8c-0.4,0-0.9,0.1-1.3,0.2c-0.2,0.1-0.4,0.3-0.4,0.6c0,0.4,0.2,0.6,0.5,0.7
		c0.8,0.1,1.6,0.1,2.4,0.1c3.5-0.2,7-0.5,10.5-0.7c0.5,0,1,0,1.5-0.3c0.3-0.1,0.5-0.4,0.5-0.7c0-0.4-0.3-0.5-0.6-0.6
		c-0.5-0.2-1.1,0.3-1.8-0.2c0.7-1.3,2.1-2.3,1.7-4.1c1.4-0.1,2.6-0.1,3.9-0.2c1.5-0.1,1.5-0.1,1.4-1.5c-0.2-3.2-0.4-6.4-0.6-9.6
		c-0.1-1.2-0.4-1.4-1.5-1.4c-4.5,0.2-8.9,0.4-13.4,0.5c-3.1,0.1-6.1,0.3-9.2,0.3c-1.7,0-1.9,0.3-1.7,2c0.3,3.1,0.6,6.2,0.9,9.3
		c0.1,1.3,0.3,1.5,1.6,1.4c1.3-0.1,2.6,0.1,3.9-0.2c0.3-0.1,0.9-0.1,1,0.3c0.4,1.6,1.7,2.4,2.7,3.5C185,95.9,184.4,95.8,183.7,95.8z
		 M192.4,101.8c-2,1.2-2.6,2.6-2.2,4.8c0.3,1.7,1,3.2,2.4,4.4c2.6,2.2,6.1,2.1,8.5-0.3c0.3-0.3,0.7-0.6,0.9-1c0.5-0.8,1-0.7,1.8-0.4
		c1.9,0.9,3.8,1.6,5.9,1.6c0.6,0,1.1,0,1.6-0.3c0.4-0.3,0.7-0.6,0.3-1.2c-3.3-5.7-8.5-8.2-14.9-8.7
		C195.2,100.7,193.7,101,192.4,101.8z M218.1,124.1c0.4-0.3,0.8-0.8,0.3-1.3c-0.4-0.4-0.9-0.2-1.3,0.2c-1.4,1.3-3,2.2-4.8,2.8
		c-3.2,1.1-5.9,0.4-8.4-1.6c-0.5-0.4-1-1.3-1.7-0.5c-0.6,0.7,0.2,1.3,0.7,1.7c1.9,1.5,4,2.6,6.3,2.7
		C212.7,127.7,215.6,126.3,218.1,124.1z M207,98.1c0.3-0.3,0.4-0.8,0-1.2c-0.4-0.3-0.7-0.2-1,0.1c-0.5,0.4-1,0.8-1.6,0.8
		c-1.5,0.1-2.4-0.9-2-2.4c0.1-0.2,0.1-0.3,0.2-0.5c0.3-0.5,0.8-1,0.2-1.5c-0.8-0.5-1.1,0.3-1.4,0.7c-0.7,1.1-0.9,2.2-0.2,3.4
		c0.7,1.2,1.7,1.9,3,1.7C205.4,99.4,206.3,98.9,207,98.1z M243.3,73.1c0,0.8,0.8,1.7,1.7,1.7c0.9,0,1.9-0.9,2-1.9
		c0.1-0.9-0.4-1.5-1.2-1.5C244.6,71.3,243.3,72.3,243.3,73.1z M244.6,68.8c0.6,0.4,1.5,0,2-0.8c0.5-0.7,0.4-1.8-0.2-2.2
		c-0.7-0.5-1.3-0.3-1.8,0.3c-0.4,0.4-0.8,0.8-1,1.3C243.8,68.1,244.1,68.5,244.6,68.8z M241.4,71c0.7,0,1.2-0.5,1.2-1.2
		c0-0.6-0.4-1.1-1-1.1c-0.6,0.1-1.2,0.4-1.3,1.2C240.5,70.5,240.8,71,241.4,71z"/>
	<path class="st2" d="M241.8,132c-0.7,2.8-1.1,5.7-1.7,8.5c-1.4,6.9-2.9,13.7-5.1,20.4c-3,9-7,17.6-11.8,25.8
		c-2.3,4-4.9,7.9-7.8,11.5c-0.6,0.8-1.2,1.1-2.2,0.8c-2.7-0.7-5.5-1.3-8.2-2c-2.9-0.8-6-1.1-8.7-2.3c-9.1-3.8-17.3-8.8-24-16.2
		c-2.8-3.1-5.1-6.5-6.3-10.6c-1.1-3.9-0.8-7.6,1.8-10.9c1.3-1.7,3-2.9,5-3.6c0.7-0.3,1.1-0.7,1.4-1.4c1.8-5.4,4.5-10.3,7.9-14.9
		c2.9-4,6-7.7,10-10.7c1.1-0.8,2.2-1.6,3.6-1.8c0.1,1.9,0.1,3.6-0.1,5.4c-0.1,0.8,0,1.3,0.5,1.9c2.2,3.2,5.4,4.9,9,5.9
		c8.2,2.3,16.1,1.3,23.9-1.9c0.9-0.3,1.2-1,1.5-1.8c0.5-1.6,1.1-3.1,1.8-4.5c1.7-3.2,4.3-5.7,6.9-8.2c0.6-0.6,1.3-1.1,2.1-1.2
		c2.2-0.2,4.5-0.3,7-0.5C244.1,125.3,242.8,127.9,241.8,132z M213.7,162.1c1.1-0.2,2.1-0.5,3.1-0.9c3.8-1.6,5.3-4.7,4.3-8.7
		c-0.7-2.9-2.7-4.6-5.6-5c-3-0.4-5.9,0.2-8.6,1.2c-1.9,0.7-3.8,1.4-5.7,2.1c-1.3,0.5-2.5,0.4-3.5-0.5c-0.2-0.2-0.5-0.4-0.5-0.6
		c-0.3-2.1-2.1-2-3.4-2.2c-1.4-0.3-2.6,0.6-3.5,1.8c-1,1.4-1.4,2.9-1.6,4.6c-0.1,0.5,0.1,0.9,0.4,1.4c0.7,0.9,0.4,1.4-0.8,1.5
		c-0.5,0-1,0-1.5-0.1c-0.7-0.1-1.4-0.1-2.1,0.1c-2.9,0.6-4.4,3-3.4,5.8c1.3,3.6,4.7,7.2,9.5,7.3c2.3,0.1,4.6-0.2,6.9-0.8
		c3.7-1,7.2-0.6,10.5,1.4c0.8,0.5,1.7,0.9,2.5,1.3c0.7,0.3,1.5,0.4,2.1-0.1c0.7-0.6,0.6-1.3,0.4-2.1c-0.5-2.9-2-5.1-4.5-6.8
		C210.6,162.4,212.2,162.4,213.7,162.1z"/>
	<path class="st2" d="M289.1,166.5c0.1-0.2,0.1-0.3,0.1-0.5c0.7-11.8-0.8-23.2-6.8-33.6c-1.6-2.8-3.6-5.3-6.1-7.3
		c-4-3.3-8.5-4.5-13.5-2.9c-0.5,0.2-0.9,0-1.4-0.1c-2.9-0.6-5.7-1.4-8.7-1.3c-1.4,0.1-2.5,0.6-3.8,0.9c-0.5,0.1-0.6,0.6-0.9,0.9
		c-2.6,3.4-4.2,7.3-4.9,11.5c-0.9,4.7-1.8,9.5-2.9,14.2c-0.2,1,0,1.3,0.9,1.7c3.7,1.4,7.5,2.9,11.2,4.4c1.6,0.6,1.7,0.6,1.7-1.1
		c0-6-0.1-12-0.1-17.9c0-0.5,0-1,0.1-1.5c0-0.3,0.3-0.5,0.7-0.5c0.4,0,0.6,0.2,0.7,0.5c0.1,0.4,0.1,0.9,0.1,1.3
		c0,9.9,0.1,19.9,0.1,29.8c0,1.4,0.1,2.7,0.4,4.3c0.8-0.4,1.6-0.2,2.4,0.1c2.3,0.9,4.7,0.7,7.1,0.7c0.7,0,0.8-0.4,1-0.9
		c1.7-4.7,3.5-9.4,5.2-14.1c2-5.3,3.9-10.6,5.9-15.9c0.2-0.6,0.4-1.8,1.3-1.5c1.1,0.4,0.4,1.4,0.1,2.1c-2.3,6.2-4.6,12.3-6.8,18.5
		c-0.1,0.2-0.1,0.3-0.2,0.5c-0.4,0.8-0.2,1.4,0.8,1.7c2.4,0.9,4.7,1.8,7,2.7c3,1.1,6,2.2,9,3.3C288.6,166.6,288.8,166.5,289.1,166.5
		z"/>
	<path class="st2" d="M177.7,108.5c1,8.6,2.1,17.2,3.1,25.8c0.1,0.9-0.1,1.5-0.6,2.3c-2.7,3.8-5,7.8-6.8,12.2
		c-0.1,0.3-0.1,0.6-0.6,0.7c-0.4-0.2-0.9-0.5-1.4-0.8c-0.7-0.4-0.8-0.8-0.4-1.5c0.5-0.8,0.9-1.7,1.4-2.5c1.8-2.9,2-5.9,0.1-8.9
		c-0.9-1.4-1.1-2.9-0.9-4.5c0.1-1.3,0.2-2.6,0.5-3.9c0.5-2.1,0.6-4.2,0.1-6.4c-0.4-1.5-0.9-3-2.5-3.8c2.2-3.6,4.7-6.9,7.8-10.1
		C177.5,107.8,177.6,108.1,177.7,108.5z M176.4,114.8c-0.1-0.7,0-1.6-1-1.7c-0.7-0.1-1,0.7-0.9,2c0.6,6.1,1.2,12.1,1.9,18.2
		c0,0.2,0.1,0.5,0.1,0.7c0.2,0.5,0.4,0.9,1.1,0.9c0.6-0.1,0.8-0.6,0.8-1.1c0-0.4-0.1-0.9-0.1-1.3c0,0,0,0,0,0
		C177.6,126.6,177,120.7,176.4,114.8z"/>
	<path class="st1" d="M269.4,165.1c-0.7,1.7-1.3,3.3-1.8,4.9c-0.4,1.2-1.1,1.6-2.2,1.6c-2.7,0-5.4,0.2-8-0.9c-1.1-0.5-1.3-0.3-1.7,1
		c-1.2,4.2,1.1,8.4,5.5,9.7c4.3,1.3,9.2-0.1,12.2-3.8c1.4-1.7,1.4-3.5,1.4-5.4c0-2.4-1.3-4.3-3.2-5.7
		C270.9,166,270.2,165.6,269.4,165.1z"/>
	<path class="st2" d="M179.3,105.2c1,9.2,2.2,18.4,3.3,27.6c0.5,0.4,0.7-0.1,0.9-0.3c1.6-2,3.4-3.9,5.4-5.6c1.5-1.3,3.1-2.5,4.9-3.5
		c1.2-0.6,1.3-0.7,0.7-2c-0.9-2-1.9-3.8-3.9-5.1c-3.8-2.5-6.7-5.9-9.4-9.5c-0.4-0.6-0.9-1.2-1.4-1.8
		C179.6,105.1,179.4,105.1,179.3,105.2z"/>
	<path class="st1" d="M264,99.1c0,1.5,0.2,3.5,0.7,5.3c0.6,2.5,2,3.2,4.5,2.3c1.9-0.7,3.1-2.1,4-3.8c1.9-3.2,2.8-6.7,3.1-10.3
		c0.1-1-0.2-2.1-0.6-3.1c-0.9-1.8-2.4-2.1-4-0.9c-0.6,0.4-1.2,1.5-2.2,0.5c-0.3-0.3-0.7,0.1-0.9,0.5c-1.4,1.9-2.8,3.8-4.1,5.8
		C263.8,96.3,264.1,97.5,264,99.1z"/>
	<path class="st3" d="M169.1,146.7c0.7-1.3,1.4-2.4,2-3.5c0.9-1.6,1.3-3.5,0.3-5.1c-2.4-3.8-1.9-7.8-1.1-11.8
		c0.4-1.9,0.3-3.9-0.3-5.8c-0.2-0.6-0.4-1.3-1.2-1.7c-1.6,2.5-2.6,5.3-3.4,8.1c-1.2,4-1.4,8.1-0.6,12.3c0.4,2.2,1.3,4.2,2.7,6
		C167.8,145.7,168.3,146.3,169.1,146.7z"/>
	<path class="st1" d="M271.9,86.2c3.4,0.1,4.8,1.2,5.7,4.5c0.1,0.3,0.1,0.7,0.5,0.7c0.3,0,0.6-0.2,0.7-0.5c1.9-3.1,3.6-6.3,5-9.7
		c0.5-1.2-0.2-2.1-1.4-2.3c-0.6-0.1-1.3,0-1.8,0.2c-3.5,1.4-6.1,3.9-8.6,6.6C271.9,85.8,271.9,86,271.9,86.2z"/>
	<path class="st2" d="M270.6,162.6c0.1,0.4,0.5,0.5,0.8,0.6c2.3,0.8,4.5,1.6,6.8,2.4c3,1.1,6,2.2,9,3.2c0.4,0.1,0.7,0.3,1.1,0.3
		c0.1,0,0.4-0.1,0.5-0.2c0.1-0.2,0-0.4-0.2-0.5c-0.3-0.2-0.7-0.3-1-0.4c-5.2-1.8-10.4-3.7-15.5-5.8c-0.3-0.1-0.6-0.3-0.9-0.3
		C270.7,161.9,270.7,162.3,270.6,162.6z"/>
	<path class="st1" d="M253.5,156.7c-0.8-0.3-1.7-0.7-2.5-1c-3.2-1.3-6.4-2.5-9.6-3.8c-0.5-0.2-0.9-0.3-1.4-0.5
		c-0.4-0.1-0.6,0.1-0.6,0.4c0,0.3,0,0.6,0.4,0.7C244.4,153.7,248.8,155.7,253.5,156.7z"/>
	<path class="st0" d="M218.7,90.7c0-0.2-0.1-0.5-0.3-0.7c-1-0.7-0.6-1.6-0.4-2.4c0.9-3.5,1.8-6.9,2.6-10.4c0.4-1.7,0.4-1.8,2.3-1.5
		c6.5,0.9,13,1.8,19.5,2.9c2.3,0.4,4.7,0.5,7,1.3c0.8,0.3,1,0.6,0.6,1.3c-0.1,0.2-0.3,0.4-0.4,0.7c-1.7,3.3-3.9,6.3-5.2,9.8
		c-0.1,0.3-0.4,0.5-0.7,0.5c-0.5,0-1,0-1.5,0c-2.1-0.1-4.2-0.5-6.4-0.4c-0.5,0-1-0.1-1.3,0.5c-1.2,2.2-2.9,3.9-5.2,5
		c0.4,0.6,1,0.5,1.4,0.6c0.6,0.1,1.1,0.2,1.7,0.3c0.4,0.1,0.7,0.4,0.6,0.8c-0.1,0.4-0.4,0.6-0.8,0.6c-0.2,0-0.4,0-0.6,0
		c-2.6-0.4-5.2-0.7-7.8-1.1c-1.8-0.3-3.6-0.5-5.4-0.8c-0.5-0.1-1.2-0.3-1.1-1c0.1-0.6,0.7-0.6,1.2-0.5c0.7,0.1,1.5,0.3,2.5,0
		C219.7,94.4,218.9,92.7,218.7,90.7z M226.4,96.1c2.9-0.3,4.9-1.9,6.5-4.6c-4.3-0.4-8.2-0.7-12.3-1C220.6,94,223.2,96.5,226.4,96.1z
		"/>
	<path class="st0" d="M182.9,91.8c-0.1-0.4-0.6-0.4-1-0.3c-1.3,0.4-2.6,0.2-3.9,0.2c-1.3,0.1-1.5-0.2-1.6-1.4
		c-0.3-3.1-0.6-6.2-0.9-9.3c-0.2-1.6,0-1.9,1.7-2c3.1,0,6.1-0.2,9.2-0.3c4.5-0.1,8.9-0.4,13.4-0.5c1.2,0,1.5,0.2,1.5,1.4
		c0.2,3.2,0.4,6.4,0.6,9.6c0.1,1.4,0.1,1.4-1.4,1.5c-1.2,0.1-2.5,0.1-3.9,0.2c0.3,1.7-1.1,2.8-1.7,4.1c0.7,0.5,1.2,0,1.8,0.2
		c0.3,0.1,0.6,0.2,0.6,0.6c0,0.4-0.1,0.6-0.5,0.7c-0.5,0.2-1,0.2-1.5,0.3c-3.5,0.2-7,0.5-10.5,0.7c-0.8,0.1-1.6,0-2.4-0.1
		c-0.3,0-0.6-0.3-0.5-0.7c0-0.3,0.2-0.5,0.4-0.6c0.4-0.1,0.9-0.2,1.3-0.2c0.7,0,1.4,0.1,2-0.5C184.6,94.2,183.3,93.3,182.9,91.8z
		 M185,91.5c0.4,1.7,2,2.8,4.4,2.9c2.9,0.2,4.8-0.9,5.7-3.4C191.6,91.2,188.3,91.4,185,91.5z"/>
	<path class="st0" d="M211.6,109.4c0.4,0.6,0.1,0.9-0.3,1.2c-0.5,0.4-1.1,0.3-1.6,0.3c-2.1,0-4.1-0.7-5.9-1.6
		c-0.7-0.3-1.3-0.4-1.8,0.4c-0.2,0.4-0.6,0.7-0.9,1c-2.4,2.4-5.9,2.5-8.5,0.3c-1.3-1.2-2-2.6-2.4-4.4c-0.5-2.2,0.2-3.7,2.2-4.8
		c1.3-0.8,2.8-1.1,4.4-1.1C203.1,101.2,208.3,103.6,211.6,109.4z M203.5,104.1c-2.7-1.2-5.5-2.1-8.4-1.5c-3.5,0.7-3.4,1.6-2.9,4.4
		c0.3,1.9,1.7,3.2,3.7,3.5c2.2,0.4,3.9-0.4,5-2.2c1-1.7,1.2-1.7,3-0.9c1.7,0.8,3.5,1.4,5.7,1.8C207.9,106.7,205.8,105.2,203.5,104.1
		z"/>
	<path class="st0" d="M209.2,128.1c3.5-0.4,6.4-1.7,8.9-4c0.4-0.3,0.8-0.8,0.3-1.3c-0.4-0.4-0.9-0.2-1.3,0.2c-1.4,1.3-3,2.2-4.8,2.8
		c-3.2,1.1-5.9,0.4-8.4-1.6c-0.5-0.4-1-1.3-1.7-0.5c-0.6,0.7,0.2,1.3,0.7,1.7C204.7,126.9,206.9,127.9,209.2,128.1z"/>
	<path class="st0" d="M204.2,99.4c1.2,0.1,2.1-0.5,2.8-1.3c0.3-0.3,0.4-0.8,0-1.2c-0.4-0.3-0.7-0.2-1,0.1c-0.5,0.4-1,0.8-1.6,0.8
		c-1.5,0.1-2.4-0.9-2-2.4c0.1-0.2,0.1-0.3,0.2-0.5c0.3-0.5,0.8-1,0.2-1.5c-0.8-0.5-1.1,0.3-1.4,0.7c-0.7,1.1-0.9,2.2-0.2,3.4
		C201.8,98.8,202.8,99.5,204.2,99.4z"/>
	<path class="st0" d="M245.7,71.4c-1.1,0-2.4,0.9-2.4,1.7c0,0.8,0.8,1.7,1.7,1.7c0.9,0,1.9-0.9,2-1.9C247,72,246.5,71.4,245.7,71.4z
		"/>
	<path class="st0" d="M243.7,67.5c0.1,0.6,0.5,1,0.9,1.3c0.6,0.4,1.5,0,2-0.8c0.5-0.7,0.4-1.8-0.2-2.2c-0.7-0.5-1.3-0.3-1.8,0.3
		C244.3,66.6,243.8,66.9,243.7,67.5z"/>
	<path class="st0" d="M240.3,69.9c0.2,0.5,0.4,1.1,1.1,1.1c0.7,0,1.2-0.5,1.2-1.2c0-0.6-0.4-1.1-1-1.1
		C241,68.8,240.5,69.2,240.3,69.9z"/>
	<path class="st0" d="M213.5,169.5c0.1,0.8,0.3,1.5-0.4,2.1c-0.7,0.5-1.4,0.4-2.1,0.1c-0.9-0.4-1.7-0.8-2.5-1.3
		c-3.3-1.9-6.8-2.4-10.5-1.4c-2.2,0.6-4.6,0.8-6.9,0.8c-4.9-0.1-8.3-3.7-9.5-7.3c-1-2.8,0.5-5.2,3.4-5.8c0.7-0.1,1.4-0.2,2.1-0.1
		c0.5,0.1,1,0.1,1.5,0.1c1.2,0,1.5-0.6,0.8-1.5c-0.4-0.4-0.5-0.9-0.4-1.4c0.2-1.6,0.6-3.2,1.6-4.6c0.9-1.2,2-2.1,3.5-1.8
		c1.3,0.2,3.1,0.2,3.4,2.2c0,0.2,0.3,0.4,0.5,0.6c1.1,1,2.3,1,3.5,0.5c1.9-0.7,3.8-1.4,5.7-2.1c2.8-1.1,5.6-1.7,8.6-1.2
		c2.9,0.4,4.9,2.1,5.6,5c1,4-0.5,7.1-4.3,8.7c-1,0.4-2,0.7-3.1,0.9c-1.5,0.3-3.1,0.3-4.7,0.6C211.5,164.5,212.9,166.7,213.5,169.5z
		 M207.9,164.3c-0.5-0.2-0.9-0.5-1.3-0.8c-0.4-0.3-1-0.7-0.9-1.3c0.1-0.7,0.7-1,1.4-1.1c0.8-0.1,1.6-0.3,2.4-0.3
		c2.1-0.1,4.1-0.1,6.1-0.9c3.4-1.3,4.6-3.5,3.7-7.1c-0.6-2.2-2.1-3.4-4.3-3.5c-3.2-0.2-6.2,0.4-9.2,1.7c-1.5,0.7-3.2,1.1-4.8,1.7
		c-1.5,0.6-2.8,0.2-4.1-0.7c-0.8-0.6-1.4-1.2-2.1-1.9c-0.9-1-2.3-1.1-3.1,0c-1,1.3-1.8,2.6-0.9,4.5c1,2.3-0.2,4-2.7,4
		c-1,0-2-0.1-3,0c-1.8,0.2-2.5,1.1-2.3,2.9c0.5,3.3,4.5,6.7,7.5,6.6c2.9-0.1,5.8-0.3,8.6-0.9c3.5-0.8,6.7,0,9.7,1.7
		c0.9,0.5,1.7,1.1,2.9,1.1C211.3,167.4,210.2,165.4,207.9,164.3z"/>
	<path class="st0" d="M178.2,132.4c-0.6-5.9-1.2-11.8-1.8-17.6c-0.1-0.7,0-1.6-1-1.7c-0.7-0.1-1,0.7-0.9,2
		c0.6,6.1,1.2,12.1,1.9,18.2c0,0.2,0.1,0.5,0.1,0.7c0.2,0.5,0.4,0.9,1.1,0.9c0.6-0.1,0.8-0.6,0.8-1.1
		C178.3,133.3,178.2,132.9,178.2,132.4C178.2,132.4,178.2,132.4,178.2,132.4z"/>
	<path class="st2" d="M220.6,90.5c0,3.5,2.5,5.9,5.7,5.6c2.9-0.3,4.9-1.9,6.5-4.6C228.6,91.2,224.7,90.8,220.6,90.5z"/>
	<path class="st2" d="M195.1,91c-3.5,0.2-6.8,0.3-10.1,0.5c0.4,1.7,2,2.8,4.4,2.9C192.2,94.6,194.1,93.5,195.1,91z"/>
	<path class="st3" d="M209.4,109.3c-1.5-2.6-3.6-4.1-6-5.1c-2.7-1.2-5.5-2.1-8.4-1.5c-3.5,0.7-3.4,1.6-2.9,4.4
		c0.3,1.9,1.7,3.2,3.7,3.5c2.2,0.4,3.9-0.4,5-2.2c1-1.7,1.2-1.7,3-0.9C205.4,108.4,207.2,108.9,209.4,109.3z"/>
	<path class="st3" d="M211.8,170c-0.5-2.6-1.6-4.6-3.9-5.7c-0.5-0.2-0.9-0.5-1.3-0.8c-0.4-0.3-1-0.7-0.9-1.3c0.1-0.7,0.7-1,1.4-1.1
		c0.8-0.1,1.6-0.3,2.4-0.3c2.1-0.1,4.1-0.1,6.1-0.9c3.4-1.3,4.6-3.5,3.7-7.1c-0.6-2.2-2.1-3.4-4.3-3.5c-3.2-0.2-6.2,0.4-9.2,1.7
		c-1.5,0.7-3.2,1.1-4.8,1.7c-1.5,0.6-2.8,0.2-4.1-0.7c-0.8-0.6-1.4-1.2-2.1-1.9c-0.9-1-2.3-1.1-3.1,0c-1,1.3-1.8,2.6-0.9,4.5
		c1,2.3-0.2,4-2.7,4c-1,0-2-0.1-3,0c-1.8,0.2-2.5,1.1-2.3,2.9c0.5,3.3,4.5,6.7,7.5,6.6c2.9-0.1,5.8-0.3,8.6-0.9
		c3.5-0.8,6.7,0,9.7,1.7C209.7,169.3,210.5,169.9,211.8,170z"/>
</g>
<g>
	<path class="st0" d="M47.5,203.3c-0.2-0.2-0.4,0-0.6,0.2c-0.5,0.3-1,0.5-1.5,0.8c-2.9,1.5-5.8,2.8-9.1,2.9
		c-6.2,0.1-10.7-3.1-13.9-8.2c-1.7-2.8-2.5-5.9-2.9-9.1c-0.5-4.6-0.7-9.1-0.9-13.7c-0.1-1.6-0.3-3.1-1.3-4.5c-1.1-1.5-1.8-3.2-2.4-5
		c-0.9-2.5-1.2-5-0.8-7.7c0.7-3.9,3-6.7,6.3-8.8c0.6-0.4,1.3-0.8,2-1.2c-0.5-0.6-1-0.7-1.5-1c-3.7-2.3-6.2-5.5-7.4-9.6
		c-0.7-2.3-0.9-4.6-0.9-7c0.1-3.8,1.1-7.4,2.4-11c2.8-7.2,7.8-12.8,12.6-18.6c0.2-0.2,0.6-0.1,0.8-0.4c0-0.4-0.3-0.7-0.5-1
		c-3-4.8-5.4-9.8-7.5-15.1c-4.4-10.8-7.2-21.9-9.1-33.4c-0.7-4.3-1.3-8.6-1.6-12.9c-0.1-1.8,0.3-3.3,1.8-4.5
		c3.5-2.8,7.2-5.2,11.1-7.3c0.4-0.2,1.1-0.3,1.3-1.1c-4.2-0.8-8.3-1.3-12.5-0.5c-0.4,0.1-0.7,0.2-1.1,0.2c-0.5,0.1-1,0-1.2-0.6
		c-0.2-0.6,0.2-0.9,0.7-1.2c3.3-1.8,6.6-3.5,10.1-5c13.9-5.7,28.5-7.9,43.4-8.4c9.2-0.3,18.3,0.3,27.4,1.6
		c13.3,1.9,26.1,5.2,38.5,10.4c2.6,1.1,5.1,2.3,7.6,3.4c1.1,0.5,1.8,1.5,2.5,2.4c0.5,0.6-0.5,1-0.6,1.6c0,0.3,0,0.6,0,0.9
		c0,9.5-0.5,19-1.2,28.5c-0.5,6.2-1.8,12.2-3.1,18.3c-0.3,1.4-0.8,2.9-1.5,4.2c-1.6,2.9-3,5.8-4.9,8.5c-0.2,0.4-0.5,0.9-0.8,0.9
		c-1.2,0.2-1.1,1.1-1.2,1.9c-0.6,3.3-1.6,6.5-3.6,9.2c-1.7,2.4-3.9,4.1-7.1,4c-0.4,0-0.7,0-1,0.3c-2.7,2.1-5.9,3.1-9.1,4
		c-1.7,0.4-3.3,1.1-4.8,1.9c-1.3,0.7-2.4,1.6-3.4,2.7c1.1,0.7,3.4,1.3,4.7,1.3c1,0,1.8-0.2,2.5-0.9c2.2-2.2,5-3.4,7.8-4.6
		c2.4-1.1,5-1.5,7.6-0.9c3.6,0.9,6.4,2.7,7.5,6.6c0.5,1.9,1,3.7,0.9,5.7c0,0.5-0.1,0.9,0.4,1.3c2.5,2.3,4.1,5.2,5.6,8.2
		c3.2,6.7,4.8,13.7,5.3,21.1c0.5,7.8-0.2,15.6-2.7,23.1c-1.6,5-4,9.6-7.7,13.4c-2.6,2.6-5.6,4.4-9.2,5.3c-3.1,0.7-6.2,1.1-9.3,1.1
		c-4,0-7.9,0.1-11.9,0c-1,0-1.4,0.3-1.8,1.2c-0.9,2.2-1.8,4.3-2.9,6.4c-2.1,4.2-4.4,8.3-7.4,11.9c-1.4,1.7-3.1,2.5-5.3,2.5
		c-5.3-0.1-10.6-0.4-15.9-1c-2.2-0.3-4.5-0.1-6.6-0.6c-0.8-0.2-1.8-0.1-1.9-1.1c-0.2-1.1,0.8-1.2,1.5-1.5c2.9-1.3,5.7-2.6,8.6-3.9
		c2.2-1,2.9-2.5,2.4-4.8c-0.1-0.7-0.3-1.5-0.6-2.1c-0.6-1.4-1.2-2.8-1.8-4.3c-0.2-0.4-0.2-0.8-0.8-0.9c-1.3-0.2-2.4-0.9-3.8-0.8
		c0,0-0.1,0.1-0.1,0.1c-0.5,1.1-1.7,1.3-2.5,2c-3.2,2.6-5.9,5.6-9,8.3c-0.9,0.8-1.7,1.6-2.8,2.1c-0.6,0.3-1.3,0.5-1.9,0
		c-0.6-0.5-0.4-1.1-0.2-1.7c0.5-1.4,1-2.8,1.5-4.2C47.5,203.9,47.7,203.6,47.5,203.3z M17.2,51.1c1.3,2.1,2.2,4.3,2.9,6.6
		c1.6,5.6,3,11.4,4.3,17.1c0.3,1.5,0.3,2.9-0.4,4.4c-0.5,1-0.8,2.1-1.3,3.1c-0.6,1.1-0.6,2.1-0.1,3.3c2.7,6.4,5.8,12.6,9.9,18.2
		c2.3,3.2,5,6.2,8.1,8.6c1.8,1.4,3.8,2.6,5.9,3.4c4.8,1.8,9.2,1.2,13.4-1.7c1.1-0.7,2.1-1.6,2.9-2.5c0.6-0.6,1.1-0.7,2-0.5
		c5.5,1.6,11.1,2.6,16.8,2.6c0.2,0,0.4,0.1,0.5,0.1c0.2,0.3,0.1,0.6,0.1,0.9c0.1,0.8-0.3,1-1,0.9c-1.9-0.1-3.8-0.2-5.7-0.4
		c-3.3-0.4-6.6-1-9.8-2c-1.1-0.3-1.8-0.1-2.6,0.7c-3.6,3.4-7.9,5.2-13,4.7c-1.5-0.1-2.9-0.5-4.5-1.1c0.3,0.8,0.4,1.5,0.7,2
		c1.1,2.2,1.3,4.6,0.8,6.9c-0.4,2.3,0.6,3.7,2.2,4.9c3,2.3,6.5,3.3,10.2,3.6c5.7,0.6,11.2-0.1,16.6-2.1c1-0.4,1.8-0.9,2.1-2.1
		c1.5-5.3,5.2-9.1,9.1-12.6c1.4-1.2,3.2-1.6,5-1.6c1,0,1.6-0.2,1.9-1.3c0.2-0.9,0.9-1.3,1.7-1.5c1.1-0.4,2.1-1,3.1-1.7
		c1.9-1.3,4.1-2.1,6.3-2.6c2.2-0.6,4.4-1.4,6.4-2.4c1.3-0.6,1.3-0.7,0.7-1.9c-0.6-1.1-0.9-2.3-1-3.5c-0.1-1-0.2-2-0.4-3.1
		c-1,0.9-1.4,2.1-1.9,3.1c-1.4,2.7-1.6,2.8-4.4,1.6c-1.1-0.4-1.7-1.4-2.7-1.9c-0.3-0.2-0.3-0.5-0.2-0.8c0.2-0.7,0.5-1.4,0.9-2
		c4.4-6.6,8-13.5,9.9-21.2c1.3-4.9,1.7-10,2-15.1c0.1-2,0.2-3.9,0.4-5.9c0.5-4,2-7.5,4.4-10.7c3.1-4.2,7.3-6.3,12.5-6.6
		c1.6-0.1,3.2-0.2,4.8-0.1c0.5-0.4,0.3-1,0.3-1.4c0-1.9,0-3.7,0-5.6c0-2.5,0.1-1.9-2-2.5c-3.9-1.1-7.9-1.5-11.9-1.9
		c-3-0.3-6-0.6-9.1-0.7c-9.1-0.3-17.7,1.5-25.9,5.3c-4.5,2.1-9,4.4-13.7,6C71,39,67.5,40,63.9,40.2c-4.8,0.2-9.3-0.9-13.7-2.8
		c-2.3-1-4.4-2.2-6.6-3.3c-4.6-2.5-9.4-4.7-14.4-6.3C28,27.5,27.1,27.5,26,28c-4.8,2.4-9.3,5.1-13.4,8.6c-0.7,0.6-1,1.2-0.9,2.2
		c0.4,3.6,0.7,7.1,1.3,10.8C15.3,49,16,49.3,17.2,51.1z M91.4,118.4c-1.4,0.1-2.6,0.8-3.6,1.7c-3.6,3.5-6.9,7.2-8.2,12.2
		c-0.2,0.7-0.6,1.3-1.4,1.6c-8.2,3.4-16.6,4.2-25.2,1.5c-3-1-5.6-2.6-7.5-5.2c-0.5-0.6-0.7-1.2-0.6-2c0.2-1.6,0.5-3.3,0.2-5
		c-1-0.1-1.6,0.6-2.3,1c-3,2-5.5,4.6-7.8,7.3c-4.6,5.5-8.3,11.5-10.6,18.4c-0.3,0.8-0.8,1.2-1.5,1.5c-3.8,1.8-6.5,4.5-7,8.9
		c-0.4,3.5,0.8,6.6,2.4,9.5c0.1,0.2,0.2,0.4,0.3,0.4c1.4,0.1,1.6,1.1,1.6,2.3c0,0.7,0.6,1.2,1,1.7c3.6,4.4,8,7.9,12.7,11
		c3.5,2.3,7.3,4.2,11.1,5.9c1.7,0.8,3.5,1.2,5.3,1.6c4.1,1,8.2,1.9,12.2,3c1,0.3,1.4,0,2-0.7c2.1-2.6,4-5.3,5.8-8.2
		c6.4-10.5,11.7-21.5,14.9-33.4c1.9-6.9,3.4-13.8,4.6-20.8c0.9-5,2.8-9.5,5.9-13.4c0.1-0.1,0.2-0.3,0.3-0.4c0,0,0-0.1,0-0.3
		C94.6,118.1,93,118.3,91.4,118.4z M107.2,157.4c1.9,0.8,4,0.6,6,0.7c0.8,0,1.3-0.2,1.6-1.1c3.4-9.2,6.8-18.4,10.2-27.6
		c0.6-3.7,1.7-7.4,0.4-11.3c-1-3.1-3.2-4.7-6.2-5.5c-2.1-0.6-4.2-0.1-6.2,0.6c-2,0.8-3.8,1.8-5.6,2.8c-0.5,0.3-1,0.6-1.3,1
		c-1.6,2.3-3.9,2.1-6.1,1.7c-1.2-0.2-1.7,0-2.4,0.9c-3.3,4.5-5.2,9.5-6,15c-0.6,3.7-1.4,7.4-2.3,11.1c-0.2,1,0,1.3,0.9,1.6
		c3.7,1.4,7.4,2.9,11,4.3c1.3,0.5,1.7,0.3,1.6-1.1c-0.2-2.8,0.2-5.6-0.3-8.3c-0.2-1-0.1-2.1-0.1-3.1c0-4.8-0.1-9.6-0.1-14.5
		c0-0.4,0-0.7,0-1.1c0-0.7,0.1-1.5,1-1.5c0.9,0,1,0.7,1,1.4c0,0.4,0,0.9,0,1.3c0.1,10.2,0.1,20.4,0.2,30.6c0,0.6,0,1.1,0,1.9
		C105.6,156.9,106.4,157.1,107.2,157.4z M126.6,130.7c-1.9,5.2-3.9,10.4-5.8,15.6c-0.3,0.9-0.8,1.8-1.4,2.6c-1,1.2-1.6,2.7-2.2,4.4
		c2.3-0.2,3.9,1.3,5.7,2.1c0.9,0.4,1.3,1.5,1.5,2.5c0.2,1,0.8,1.5,1.8,1.9c3.6,1.3,7.1,2.7,10.8,3.8c2.5-9.6-2.7-30.7-9.1-36.7
		C127.6,128.3,127.1,129.5,126.6,130.7z M20,115.3c1.7,0.9,2.3,2.6,2.5,4.3c0.3,1.8,0.3,3.6-0.1,5.3c-0.2,1.1-0.4,2.3-0.5,3.5
		c-0.2,2,0,3.9,1.1,5.7c1.5,2.5,1.4,5,0,7.6c-0.6,1-1,2-1.6,2.9c-0.5,0.8-0.5,1.3,0.4,1.7c0.4,0.2,0.9,0.5,1.3,0.7
		c0.6-0.2,0.6-0.8,0.8-1.2c1.7-3.9,3.7-7.5,6.1-11c0.7-1,1-1.9,0.8-3.2c-1.1-8.6-2.1-17.2-3.1-25.8c0,0-0.1-0.1-0.2-0.4
		C24.6,108.6,22.1,111.8,20,115.3z M32.7,130.8c0.7,0,0.9-0.6,1.2-0.9c1.7-2,3.5-3.8,5.5-5.5c1.3-1.1,2.6-2.1,4.1-2.8
		c1.4-0.7,1.4-0.8,0.8-2.2c-0.9-1.9-1.9-3.6-3.8-4.8c-3.8-2.5-6.7-6-9.4-9.6c-0.4-0.5-0.6-1.1-1.6-1.7
		C30.4,112.6,31.6,121.7,32.7,130.8z M108.8,168.7c3.8,1.9,8.8,1,11.8-2.1c2-2.1,3-4.4,2-7.3c-0.1-0.4-0.1-0.9-0.2-1.3
		c-0.1-0.3-0.3-0.9-0.5-0.9c-1.3,0-1.8-1.2-2.8-1.6c-1.2-0.5-1.6-0.4-2,0.9c-0.2,0.6-0.5,1.2-0.6,1.7c-0.3,1.5-1.4,1.9-2.7,1.9
		c-2.5,0-5.1,0-7.5-1c-1.1-0.4-1.2-0.4-1.5,0.8c-0.2,0.7-0.4,1.4-0.3,2.2C104.6,165.2,106.1,167.4,108.8,168.7z M14.9,134.7
		c0.4,3.5,1.7,6.7,4.3,9.4c1.1-1.7,2.1-3.4,2.7-5.2c0.3-1,0.2-2-0.4-2.9c-2.4-3.6-1.9-7.5-1.2-11.4c0.3-1.7,0.3-3.4,0-5.1
		c-0.2-0.8-0.5-1.5-1.2-2.3C16.2,122.8,14.3,128.5,14.9,134.7z M113.6,102.9c0.6,2.1,1.9,2.7,3.9,2c1.2-0.4,2.2-1.2,2.9-2.2
		c2.7-3.5,3.9-7.5,4.1-11.9c0.1-1.3-0.3-2.6-1.3-3.5c-1-0.8-1.7-0.8-2.6-0.1c-0.8,0.6-1.4,1.8-2.6,0.7c-0.3-0.2-0.4,0.2-0.5,0.3
		c-1.5,1.8-2.9,3.7-4.1,5.7c-0.6,1-0.2,2.2-0.4,3.2C113,99.2,113.1,101.1,113.6,102.9z M131.9,80c0.5-1.2-0.3-2.2-1.6-2.2
		c-0.6,0-1.2,0.2-1.8,0.5c-3.2,1.4-5.5,3.8-8.1,6.4c3.9-0.2,5.4,2,6.1,5.3C128.8,86.7,130.5,83.5,131.9,80z M136.4,165.5
		c-3.6-1.3-7.2-2.6-10.8-3.9c-0.2-0.1-0.5-0.2-0.6,0.1c-0.2,0.3-0.1,0.6,0.3,0.7c0.3,0.1,0.6,0.2,0.9,0.3c3.2,1.1,6.4,2.3,9.6,3.4
		c0.4,0.1,0.7,0.5,1.2,0.2C137.1,165.8,136.8,165.6,136.4,165.5z M101.1,153.7c-3.6-1.5-7.3-2.9-11-4.3c-0.4-0.2-0.8-0.4-1.2-0.4
		c-0.3,0-0.5,0.3-0.6,0.6c0,0.3,0,0.5,0.3,0.5c4.3,0.9,8.4,2.8,12.6,4.1c0.3,0.1,0.6,0.4,1,0.2C102.2,153.7,101.5,153.9,101.1,153.7
		z"/>
	<path class="st4" d="M11.7,38.8c-0.1-1,0.1-1.6,0.9-2.2c4.1-3.5,8.6-6.2,13.4-8.6c1.1-0.5,2-0.6,3.2-0.2c5,1.6,9.8,3.8,14.4,6.3
		c2.2,1.2,4.3,2.4,6.6,3.3c4.4,1.9,8.9,3,13.7,2.8C67.5,40,71,39,74.4,37.9c4.8-1.6,9.2-3.9,13.7-6c8.2-3.8,16.9-5.6,25.9-5.3
		c3,0.1,6,0.4,9.1,0.7c4,0.4,8,0.9,11.9,1.9c2.1,0.6,2,0,2,2.5c0,1.9,0,3.7,0,5.6c0,0.5,0.2,1-0.3,1.4c-1.6-0.2-3.2,0-4.8,0.1
		c-5.2,0.3-9.4,2.4-12.5,6.6c-2.4,3.2-3.9,6.7-4.4,10.7c-0.3,2-0.3,3.9-0.4,5.9c-0.3,5.1-0.7,10.1-2,15.1c-2,7.7-5.5,14.7-9.9,21.2
		c-0.4,0.6-0.8,1.3-0.9,2c-0.1,0.3-0.1,0.7,0.2,0.8c1,0.5,1.6,1.5,2.7,1.9c2.8,1.2,3,1.1,4.4-1.6c0.5-1,0.9-2.2,1.9-3.1
		c0.1,1.2,0.3,2.2,0.4,3.1c0.1,1.2,0.4,2.4,1,3.5c0.6,1.2,0.6,1.3-0.7,1.9c-2,1-4.2,1.9-6.4,2.4c-2.2,0.6-4.4,1.3-6.3,2.6
		c-1,0.7-1.9,1.3-3.1,1.7c-0.8,0.3-1.5,0.7-1.7,1.5c-0.2,1.1-0.9,1.3-1.9,1.3c-1.8,0-3.6,0.4-5,1.6c-3.9,3.5-7.6,7.3-9.1,12.6
		c-0.3,1.2-1.1,1.7-2.1,2.1c-5.4,2-10.9,2.7-16.6,2.1c-3.7-0.4-7.2-1.4-10.2-3.6c-1.6-1.2-2.6-2.6-2.2-4.9c0.4-2.3,0.3-4.7-0.8-6.9
		c-0.3-0.6-0.4-1.2-0.7-2c1.7,0.6,3.1,1,4.5,1.1c5.1,0.5,9.3-1.3,13-4.7c0.8-0.8,1.5-1,2.6-0.7c3.2,1,6.5,1.5,9.8,2
		c1.9,0.2,3.8,0.3,5.7,0.4c0.7,0.1,1.1-0.2,1-0.9c0-0.3,0.1-0.6-0.1-0.9c-0.1,0-0.3-0.1-0.5-0.1c-5.7,0-11.3-1-16.8-2.6
		c-0.8-0.2-1.4-0.1-2,0.5c-0.9,1-1.9,1.8-2.9,2.5c-4.2,2.9-8.6,3.5-13.4,1.7c-2.2-0.8-4.1-2-5.9-3.4c-3.2-2.4-5.8-5.4-8.1-8.6
		c-4.1-5.6-7.2-11.8-9.9-18.2c-0.5-1.2-0.5-2.2,0.1-3.3c0.5-1,0.9-2,1.3-3.1c0.6-1.4,0.7-2.9,0.4-4.4c-1.3-5.7-2.7-11.4-4.3-17.1
		c-0.7-2.3-1.6-4.5-2.9-6.6C16,49.3,15.3,49,13,49.6C12.5,45.9,12.1,42.4,11.7,38.8z M83.9,90.9c0.3-0.6,0.8-0.5,1.2-0.5
		c2.1,0.2,4.2,0.3,6.3,0.5c1.7,0.2,1.7,0.1,2.5-1.4c1.4-2.7,3-5.3,4.4-7.9c0.2-0.4,0.5-0.9,0.7-1.3c0.6-1.2,0.5-1.5-0.9-1.8
		c-5.3-1.2-10.7-1.7-16.1-2.6c-3-0.5-6-0.9-9-1.3c-0.5-0.1-1.1-0.2-1.7-0.2c-0.8-0.1-1.2,0.2-1.4,1.1c-0.9,3.7-1.9,7.3-2.8,11
		c-0.2,0.9-0.5,1.8,0.5,2.5c0.2,0.1,0.3,0.4,0.3,0.7c0.2,1.8,0.8,3.3,2,4.8c-0.9,0.3-1.6,0-2.3,0c-0.5,0-1,0.2-1.1,0.7
		c-0.1,0.6,0.3,0.9,0.8,1.1c0.3,0.1,0.6,0.1,0.9,0.1c4,0.6,8.1,1.2,12.1,1.7c0.4,0.1,0.7,0.1,1.1,0.1c0.5,0,0.9-0.2,1-0.7
		c0.1-0.6-0.2-1-0.7-1.1c-0.8-0.2-1.7-0.2-2.7-0.6C81.2,94.6,82.9,93,83.9,90.9z M46.7,90.1c0-0.6,0.4-0.5,0.8-0.5
		c1.1-0.1,2.2-0.2,3.3-0.2c0.8,0,1.4-0.3,1.2-1.2c-0.5-3.2-0.4-6.4-0.7-9.6c-0.2-1.8-0.3-1.8-2-1.7c-6.4,0.3-12.7,0.5-19.1,0.8
		c-1.2,0.1-2.5,0.1-3.7,0.2c-1,0.1-1.2,0.4-1.1,1.5c0.4,3.3,0.7,6.5,1.1,9.8c0.1,1.4,0.3,1.5,1.6,1.5c1.3,0,2.6-0.1,3.9-0.1
		c0.5,0,1,0,1.1,0.6c0.3,1.2,1.3,1.9,2.1,2.7c-0.2,0.7-0.7,0.3-1.1,0.4c-0.5,0.1-1,0.1-1.5,0.2c-0.5,0.1-0.7,0.4-0.7,0.9
		c0,0.5,0.4,0.8,0.9,0.8c1.4,0,2.8,0,4.3-0.1c2.8-0.2,5.5-0.4,8.3-0.6c0.1,0,0.1,0,0.2,0c0.8-0.1,1.9,0.1,1.9-1
		c0-1.2-1.1-0.8-1.9-0.9c-0.1,0-0.1,0-0.3-0.1C45.9,92.1,46.8,91.3,46.7,90.1z M57.2,109.2c1.1,0.2,2.2,0.3,3.3,0.1
		c1.1-0.2,1.3-0.9,0.7-1.9c-3-5.2-7.7-7.6-13.4-8.4c-1.9-0.3-3.8,0-5.6,0.9c-2.1,1.1-2.8,2.7-2.2,5.1c0.1,0.3,0.1,0.6,0.1,0.9
		c0.7,2.5,2.3,4.3,4.9,4.8c2.6,0.6,4.9-0.1,6.7-2.2c0.3-0.3,0.4-0.8,0.9-1C54.1,108.2,55.6,108.8,57.2,109.2z M67.7,122.3
		c0.5-0.4,0.9-1,0.4-1.6c-0.5-0.6-1.1-0.2-1.6,0.2c-1.2,1-2.5,1.8-3.9,2.5c-3.1,1.4-6,1-8.7-1.2c-0.3-0.3-0.7-0.6-1-0.8
		c-0.3-0.2-0.7-0.3-1,0c-0.4,0.3-0.4,0.7-0.2,1.2c0.1,0.2,0.3,0.4,0.5,0.6c2,1.7,4.2,3,7.2,3C62.4,125.9,65.2,124.6,67.7,122.3z
		 M52.8,97.9c1.4,0.4,3.5-0.2,4.1-1.3c0.3-0.5,0.4-0.9-0.1-1.3c-0.4-0.3-0.8-0.2-1.2,0c-0.4,0.2-0.7,0.5-1.1,0.7
		c-0.7,0.3-1.3,0.2-1.9-0.3c-0.6-0.5-0.6-1.2-0.2-1.9c0.1-0.3,0.4-0.5,0.5-0.8c0.2-0.4,0.2-0.9-0.3-1.2c-0.4-0.3-0.8-0.2-1.2,0.1
		c-0.6,0.4-1.1,1.7-1.2,2.6C50.3,96.2,51.3,97.5,52.8,97.9z M94.7,70.1c-1.4,0-2.7,1-2.6,2c0,0.9,1.1,1.9,2,1.8c1.1,0,2-1.1,2-2.2
		C96.1,70.8,95.6,70.1,94.7,70.1z M94.7,64.4c-0.9,0-2.2,1.3-2.1,2.2c0,0.9,0.8,1.6,1.7,1.6c1.1-0.1,1.9-1,1.9-2.1
		C96.1,65,95.5,64.4,94.7,64.4z M90.5,70.2c0.7,0,1.4-0.7,1.4-1.4c0-0.7-0.3-1.2-1.1-1.3c-0.6-0.1-1.6,0.8-1.6,1.4
		C89.2,69.5,89.9,70.2,90.5,70.2z"/>
	<path class="st2" d="M96.3,118.5c-0.1,0.2-0.2,0.3-0.3,0.4c-3.1,4-5,8.5-5.9,13.4c-1.2,7-2.7,14-4.6,20.8
		c-3.2,11.9-8.5,22.9-14.9,33.4c-1.7,2.8-3.6,5.6-5.8,8.2c-0.6,0.7-1,1-2,0.7c-4.1-1.1-8.2-2-12.2-3c-1.8-0.4-3.6-0.8-5.3-1.6
		c-3.8-1.7-7.6-3.6-11.1-5.9c-4.7-3.1-9.1-6.6-12.7-11c-0.4-0.5-1-1-1-1.7c-0.1-1.1-0.2-2.1-1.6-2.3c-0.1,0-0.2-0.3-0.3-0.4
		c-1.6-3-2.9-6.1-2.4-9.5c0.5-4.3,3.2-7.1,7-8.9c0.7-0.3,1.2-0.7,1.5-1.5c2.3-6.8,6-12.8,10.6-18.4c2.3-2.8,4.8-5.4,7.8-7.3
		c0.7-0.5,1.4-1.1,2.3-1c0.4,1.7,0,3.4-0.2,5c-0.1,0.8,0.1,1.4,0.6,2c1.9,2.6,4.5,4.3,7.5,5.2c8.6,2.8,16.9,1.9,25.2-1.5
		c0.8-0.3,1.2-0.9,1.4-1.6c1.3-5,4.5-8.7,8.2-12.2c1-1,2.1-1.6,3.6-1.7c1.6-0.1,3.2-0.2,4.9-0.2C96.3,118.4,96.3,118.5,96.3,118.5z
		 M62.1,159.9c2.1-0.2,4.1-0.7,5.9-1.9c2.7-1.8,3.6-4.7,2.6-8.4c-0.8-2.9-3-4.5-6.2-4.7c-2.9-0.2-5.7,0.2-8.3,1.4
		c-1.9,0.8-3.8,1.6-5.7,2.1c-1.5,0.4-2.7-0.2-3.3-1.8c-0.1-0.2-0.2-0.6-0.3-0.6c-1.1-0.4-2.1-1.1-3.3-1.1c-1.1,0-2,0.4-2.8,1.2
		c-1.6,1.6-2,3.6-2.2,5.7c0,0.3,0.1,0.6,0.3,0.9c0.7,1.2,0.7,1.2-0.6,1.3c-0.8,0-1.6-0.1-2.4,0c-3.6,0.1-5.4,2.7-4.3,6.1
		c1.3,4.2,5.4,7.2,9.8,7.2c2.6,0,5.2-0.3,7.7-0.9c2.8-0.7,5.5-0.3,8.1,1.1c0.8,0.4,1.5,0.8,2.3,1.2c0.5,0.2,1,0.5,1.5,0.6
		c1.8,0.5,2.8-0.4,2.5-2.2c-0.4-2.7-1.6-5-4.2-6.7C60.2,159.9,61.1,159.9,62.1,159.9z"/>
	<path class="st2" d="M104.5,157.2c1.1-0.3,1.9-0.1,2.7,0.2c1.9,0.8,4,0.6,6,0.7c0.8,0,1.3-0.2,1.6-1.1c3.4-9.2,6.8-18.4,10.2-27.6
		c0.6-3.7,1.7-7.4,0.4-11.3c-1-3.1-3.2-4.7-6.2-5.5c-2.1-0.6-4.2-0.1-6.2,0.6c-2,0.8-3.8,1.8-5.6,2.8c-0.5,0.3-1,0.6-1.3,1
		c-1.6,2.3-3.9,2.1-6.1,1.7c-1.2-0.2-1.7,0-2.4,0.9c-3.3,4.5-5.2,9.5-6,15c-0.6,3.7-1.4,7.4-2.3,11.1c-0.2,1,0,1.3,0.9,1.6
		c3.7,1.4,7.4,2.9,11,4.3c1.3,0.5,1.7,0.3,1.6-1.1c-0.2-2.8,0.2-5.6-0.3-8.3c-0.2-1-0.1-2.1-0.1-3.1c0-4.8-0.1-9.6-0.1-14.5
		c0-0.4,0-0.7,0-1.1c0-0.7,0.1-1.5,1-1.5c0.9,0,1,0.7,1,1.4c0,0.4,0,0.9,0,1.3c0.1,10.2,0.1,20.4,0.2,30.6
		C104.5,155.9,104.5,156.4,104.5,157.2z"/>
	<path class="st2" d="M127.9,126.9c-0.3,1.4-0.8,2.6-1.3,3.8c-1.9,5.2-3.9,10.4-5.8,15.6c-0.3,0.9-0.8,1.8-1.4,2.6
		c-1,1.2-1.6,2.7-2.2,4.4c2.3-0.2,3.9,1.3,5.7,2.1c0.9,0.4,1.3,1.5,1.5,2.5c0.2,1,0.8,1.5,1.8,1.9c3.6,1.3,7.1,2.7,10.8,3.8
		C139.5,154,134.3,132.9,127.9,126.9z"/>
	<path class="st2" d="M27.7,105.9c1,8.6,2,17.2,3.1,25.8c0.2,1.3-0.1,2.2-0.8,3.2c-2.4,3.4-4.5,7.1-6.1,11c-0.2,0.4-0.2,1-0.8,1.2
		c-0.4-0.2-0.8-0.5-1.3-0.7c-0.9-0.4-0.9-0.9-0.4-1.7c0.6-0.9,1.1-2,1.6-2.9c1.4-2.5,1.5-5.1,0-7.6c-1.1-1.8-1.3-3.7-1.1-5.7
		c0.1-1.2,0.3-2.3,0.5-3.5c0.4-1.8,0.4-3.6,0.1-5.3c-0.3-1.7-0.8-3.3-2.5-4.3c2.1-3.5,4.6-6.7,7.5-9.8
		C27.7,105.8,27.7,105.9,27.7,105.9z M26.6,130.8c0,0.3,0.1,0.6,0.1,0.9c0.1,0.5,0.4,1,1,0.9c0.7,0,0.9-0.6,0.9-1.2
		c0-0.3,0-0.6-0.1-0.9c-0.6-5.7-1.2-11.4-1.8-17.1c-0.1-0.6-0.1-1.1-0.3-1.6c-0.2-0.4-0.5-0.6-0.9-0.5c-0.4,0.1-0.7,0.3-0.7,0.7
		c0,0.6,0,1.1,0,1.4C25.4,119.4,26,125.1,26.6,130.8z"/>
	<path class="st2" d="M29.4,103.1c1,9.5,2.2,18.6,3.3,27.7c0.7,0,0.9-0.6,1.2-0.9c1.7-2,3.5-3.8,5.5-5.5c1.3-1.1,2.6-2.1,4.1-2.8
		c1.4-0.7,1.4-0.8,0.8-2.2c-0.9-1.9-1.9-3.6-3.8-4.8c-3.8-2.5-6.7-6-9.4-9.6C30.6,104.3,30.4,103.7,29.4,103.1z"/>
	<path class="st4" d="M104.4,162.1c0.2,3.1,1.7,5.2,4.4,6.6c3.8,1.9,8.8,1,11.8-2.1c2-2.1,3-4.4,2-7.3c-0.1-0.4-0.1-0.9-0.2-1.3
		c-0.1-0.3-0.3-0.9-0.5-0.9c-1.3,0-1.8-1.2-2.8-1.6c-1.2-0.5-1.6-0.4-2,0.9c-0.2,0.6-0.5,1.2-0.6,1.7c-0.3,1.5-1.4,1.9-2.7,1.9
		c-2.5,0-5.1,0-7.5-1c-1.1-0.4-1.2-0.4-1.5,0.8C104.5,160.6,104.3,161.4,104.4,162.1z"/>
	<path class="st3" d="M19.1,117.2c-2.9,5.7-4.9,11.3-4.2,17.6c0.4,3.5,1.7,6.7,4.3,9.4c1.1-1.7,2.1-3.4,2.7-5.2c0.3-1,0.2-2-0.4-2.9
		c-2.4-3.6-1.9-7.5-1.2-11.4c0.3-1.7,0.3-3.4,0-5.1C20.2,118.6,19.9,117.9,19.1,117.2z"/>
	<path class="st4" d="M113.3,94c1.3-2,2.6-3.9,4.1-5.7c0.1-0.2,0.3-0.5,0.5-0.3c1.3,1,1.9-0.1,2.6-0.7c1-0.7,1.7-0.7,2.6,0.1
		c1.1,0.9,1.4,2.2,1.3,3.5c-0.2,4.3-1.4,8.4-4.1,11.9c-0.8,1-1.7,1.7-2.9,2.2c-2.1,0.8-3.3,0.2-3.9-2c-0.5-1.9-0.6-3.8-0.7-5.8
		C113.1,96.2,112.7,95,113.3,94z M116.9,99.8c-0.1-0.6-0.4-1.1-1.1-0.9c-0.6,0.1-0.7,0.6-0.7,1.1c0,0.2,0,0.4,0.1,0.6
		c0.2,1.2,0.3,2.5,1.6,2.9c1.3,0.5,2.2-0.5,3-1.3c2.1-2.1,2.8-4.8,2.8-7.6c0-1.7-1.1-2.9-2.5-3.7c-0.5-0.3-1-0.4-1.6-0.2
		c-0.5,0.2-0.9,0.4-0.9,1c0,0.5,0.4,0.7,0.9,0.8c2,0.6,2.6,1.5,2.2,3.5c-0.4,2.1-1,4.2-3.1,5.5C116.9,100.9,117,100.3,116.9,99.8z"
		/>
	<path class="st4" d="M126.6,90c2.3-3.3,3.9-6.6,5.3-10c0.5-1.2-0.3-2.2-1.6-2.2c-0.6,0-1.2,0.2-1.8,0.5c-3.2,1.4-5.5,3.8-8.1,6.4
		C124.4,84.5,125.8,86.8,126.6,90z"/>
	<path class="st2" d="M136.9,166.3c0.2-0.5-0.2-0.7-0.5-0.8c-3.6-1.3-7.2-2.6-10.8-3.9c-0.2-0.1-0.5-0.2-0.6,0.1
		c-0.2,0.3-0.1,0.6,0.3,0.7c0.3,0.1,0.6,0.2,0.9,0.3c3.2,1.1,6.4,2.3,9.6,3.4C136.1,166.2,136.5,166.6,136.9,166.3z"/>
	<path class="st4" d="M102.3,154.3c-0.2-0.7-0.8-0.5-1.2-0.7c-3.6-1.5-7.3-2.9-11-4.3c-0.4-0.2-0.8-0.4-1.2-0.4
		c-0.3,0-0.5,0.3-0.6,0.6c0,0.3,0,0.5,0.3,0.5c4.3,0.9,8.4,2.8,12.6,4.1C101.6,154.3,101.9,154.6,102.3,154.3z"/>
	<path class="st2" d="M47.3,204.1c0.2-0.2,0.4-0.6,0.2-0.8c-0.2-0.2-0.4,0-0.6,0.2C47,203.8,47.2,203.9,47.3,204.1z"/>
	<path class="st0" d="M81.7,96.4c0.5,0.1,0.8,0.5,0.7,1.1c-0.1,0.5-0.5,0.7-1,0.7c-0.4,0-0.7,0-1.1-0.1c-4-0.6-8.1-1.2-12.1-1.7
		c-0.3,0-0.6-0.1-0.9-0.1c-0.5-0.2-0.9-0.5-0.8-1.1c0.1-0.6,0.6-0.7,1.1-0.7c0.7,0,1.4,0.3,2.3,0c-1.2-1.5-1.8-3.1-2-4.8
		c0-0.3-0.1-0.5-0.3-0.7c-1-0.7-0.7-1.6-0.5-2.5c0.9-3.7,1.9-7.3,2.8-11c0.2-0.9,0.6-1.2,1.4-1.1c0.6,0.1,1.1,0.1,1.7,0.2
		c3,0.4,6,0.8,9,1.3c5.3,0.9,10.8,1.3,16.1,2.6c1.4,0.3,1.5,0.6,0.9,1.8c-0.2,0.4-0.5,0.9-0.7,1.3c-1.5,2.6-3,5.3-4.4,7.9
		C93,91,93.1,91,91.4,90.9c-2.1-0.2-4.2-0.3-6.3-0.5c-0.5,0-0.9-0.1-1.2,0.5c-1,2.1-2.6,3.7-4.8,4.9C80,96.2,80.9,96.2,81.7,96.4z
		 M76.9,94.5c2.2-0.5,4-2.1,5.1-4.4c-4-0.3-7.9-0.6-11.9-1C70.3,93.2,73.2,95.3,76.9,94.5z"/>
	<path class="st0" d="M45.6,93.3c0.7,0.1,1.9-0.3,1.9,0.9c0,1.1-1.1,0.9-1.9,1c-0.1,0-0.1,0-0.2,0c-2.8,0.2-5.5,0.4-8.3,0.6
		c-1.4,0.1-2.8,0.1-4.3,0.1c-0.5,0-0.8-0.2-0.9-0.8c0-0.5,0.2-0.8,0.7-0.9c0.5-0.1,1-0.1,1.5-0.2c0.4-0.1,0.9,0.3,1.1-0.4
		c-0.9-0.8-1.8-1.5-2.1-2.7c-0.2-0.7-0.6-0.6-1.1-0.6c-1.3,0-2.6,0.1-3.9,0.1c-1.3,0-1.4-0.1-1.6-1.5c-0.4-3.3-0.7-6.5-1.1-9.8
		c-0.1-1,0.1-1.4,1.1-1.5c1.2-0.1,2.5-0.2,3.7-0.2c6.4-0.3,12.7-0.5,19.1-0.8c1.8-0.1,1.9,0,2,1.7c0.3,3.2,0.2,6.4,0.7,9.6
		c0.2,0.9-0.4,1.2-1.2,1.2c-1.1,0.1-2.2,0.2-3.3,0.2c-0.4,0-0.8,0-0.8,0.5c0.1,1.2-0.8,2-1.5,3.1C45.4,93.2,45.5,93.3,45.6,93.3z
		 M35,90.1c0.4,1.7,1.9,2.7,4.1,2.9c2.8,0.2,4.7-0.8,5.8-3.4C41.5,89.8,38.3,90,35,90.1z"/>
	<path class="st0" d="M51.7,108.5c-1.8,2.1-4.1,2.8-6.7,2.2c-2.6-0.6-4.2-2.3-4.9-4.8c-0.1-0.3-0.1-0.6-0.1-0.9
		c-0.5-2.4,0.1-3.9,2.2-5.1c1.7-0.9,3.7-1.2,5.6-0.9c5.7,0.8,10.5,3.1,13.4,8.4c0.6,1,0.4,1.6-0.7,1.9c-1.1,0.2-2.2,0.1-3.3-0.1
		c-1.6-0.4-3.2-1-4.6-1.7C52.1,107.8,52,108.2,51.7,108.5z M48.4,101.3c-1.4-0.2-2.7-0.2-4,0.1c-1.8,0.5-2.4,1.4-2.2,3.2
		c0.2,2.1,1.6,3.7,3.4,4.1c2,0.4,3.7-0.4,4.9-2.2c1-1.7,1.3-1.8,3.1-0.9c1.6,0.8,3.2,1.3,4.9,1.5C55.9,103.7,52.5,102,48.4,101.3z"
		/>
	<path class="st0" d="M59.3,126.1c3.1-0.3,6-1.6,8.4-3.8c0.5-0.4,0.9-1,0.4-1.6c-0.5-0.6-1.1-0.2-1.6,0.2c-1.2,1-2.5,1.8-3.9,2.5
		c-3.1,1.4-6,1-8.7-1.2c-0.3-0.3-0.7-0.6-1-0.8c-0.3-0.2-0.7-0.3-1,0c-0.4,0.3-0.4,0.7-0.2,1.2c0.1,0.2,0.3,0.4,0.5,0.6
		C54.1,124.9,56.3,126.2,59.3,126.1z"/>
	<path class="st0" d="M50.4,94.6c0,1.5,0.9,2.8,2.5,3.3c1.4,0.4,3.5-0.2,4.1-1.3c0.3-0.5,0.4-0.9-0.1-1.3c-0.4-0.3-0.8-0.2-1.2,0
		c-0.4,0.2-0.7,0.5-1.1,0.7c-0.7,0.3-1.3,0.2-1.9-0.3c-0.6-0.5-0.6-1.2-0.2-1.9c0.1-0.3,0.4-0.5,0.5-0.8c0.2-0.4,0.2-0.9-0.3-1.2
		c-0.4-0.3-0.8-0.2-1.2,0.1C50.9,92.4,50.4,93.7,50.4,94.6z"/>
	<path class="st0" d="M96.1,71.7c0-0.9-0.6-1.6-1.4-1.6c-1.4,0-2.7,1-2.6,2c0,0.9,1.1,1.9,2,1.8C95.1,73.9,96.1,72.9,96.1,71.7z"/>
	<path class="st0" d="M96.1,66c0-1-0.6-1.6-1.4-1.6c-0.9,0-2.2,1.3-2.1,2.2c0,0.9,0.8,1.6,1.7,1.6C95.4,68.1,96.2,67.1,96.1,66z"/>
	<path class="st0" d="M89.2,68.9c0,0.6,0.7,1.3,1.3,1.3c0.7,0,1.4-0.7,1.4-1.4c0-0.7-0.3-1.2-1.1-1.3C90.2,67.4,89.2,68.3,89.2,68.9
		z"/>
	<path class="st0" d="M63.3,167c0.3,1.8-0.8,2.7-2.5,2.2c-0.5-0.2-1-0.4-1.5-0.6c-0.8-0.4-1.5-0.8-2.3-1.2c-2.6-1.4-5.2-1.8-8.1-1.1
		c-2.5,0.6-5.1,0.9-7.7,0.9c-4.3,0-8.4-3-9.8-7.2c-1.1-3.4,0.7-5.9,4.3-6.1c0.8,0,1.6,0.1,2.4,0c1.3,0,1.3,0,0.6-1.3
		c-0.2-0.3-0.3-0.6-0.3-0.9c0.2-2.1,0.6-4.2,2.2-5.7c0.8-0.8,1.7-1.2,2.8-1.2c1.2,0,2.2,0.7,3.3,1.1c0.2,0.1,0.2,0.4,0.3,0.6
		c0.6,1.5,1.7,2.2,3.3,1.8c2-0.5,3.9-1.3,5.7-2.1c2.7-1.1,5.4-1.5,8.3-1.4c3.2,0.2,5.4,1.8,6.2,4.7c1,3.7,0.1,6.6-2.6,8.4
		c-1.8,1.2-3.8,1.7-5.9,1.9c-0.9,0.1-1.9,0-3,0.4C61.7,162,62.9,164.3,63.3,167z M57.5,161.9c-0.5-0.3-1.1-0.6-1.6-1
		c-0.5-0.4-0.9-0.9-0.7-1.6c0.2-0.7,0.8-1,1.4-1.1c1.6-0.2,3.2-0.3,4.8-0.4c1.6-0.1,3.2-0.4,4.6-1.2c3-1.5,3.8-5.5,1.7-8.1
		c-0.6-0.7-1.4-1.2-2.3-1.4c-2.7-0.6-5.3-0.1-7.8,0.8c-1.8,0.6-3.6,1.4-5.4,2c-3.2,1.1-5,0.7-7.3-1.9c-1.3-1.5-2.6-1.4-3.5,0.4
		c-0.5,1-1,2-0.4,3.2c0.3,0.5,0.2,1.1,0.2,1.6c0,2-0.8,2.8-2.8,2.8c-0.9,0-1.9-0.1-2.8-0.1c-2.2,0.1-3,1.2-2.3,3.3
		c1,3.3,4.5,5.8,8,5.8c2.8-0.1,5.5-0.6,8.3-1.1c2.6-0.5,5,0,7.4,1.1c1.3,0.6,2.5,1.3,4.1,2C60.7,164.6,59.5,163,57.5,161.9z"/>
	<path class="st0" d="M24.8,113.5c0.6,5.9,1.2,11.7,1.8,17.4c0,0.3,0.1,0.6,0.1,0.9c0.1,0.5,0.4,1,1,0.9c0.7,0,0.9-0.6,0.9-1.2
		c0-0.3,0-0.6-0.1-0.9c-0.6-5.7-1.2-11.4-1.8-17.1c-0.1-0.6-0.1-1.1-0.3-1.6c-0.2-0.4-0.5-0.6-0.9-0.5c-0.4,0.1-0.7,0.3-0.7,0.7
		C24.7,112.6,24.8,113.1,24.8,113.5z"/>
	<path class="st0" d="M117.5,101.5c-0.6-0.6-0.5-1.2-0.6-1.7c-0.1-0.6-0.4-1.1-1.1-0.9c-0.6,0.1-0.7,0.6-0.7,1.1
		c0,0.2,0,0.4,0.1,0.6c0.2,1.2,0.3,2.5,1.6,2.9c1.3,0.5,2.2-0.5,3-1.3c2.1-2.1,2.8-4.8,2.8-7.6c0-1.7-1.1-2.9-2.5-3.7
		c-0.5-0.3-1-0.4-1.6-0.2c-0.5,0.2-0.9,0.4-0.9,1c0,0.5,0.4,0.7,0.9,0.8c2,0.6,2.6,1.5,2.2,3.5C120.1,98.1,119.5,100.2,117.5,101.5z
		"/>
	<path class="st2" d="M70,89.1c0.3,4.1,3.1,6.2,6.8,5.3c2.2-0.5,4-2.1,5.1-4.4C77.9,89.8,74,89.5,70,89.1z"/>
	<path class="st2" d="M45,89.6c-3.4,0.2-6.7,0.3-9.9,0.5c0.4,1.7,1.9,2.7,4.1,2.9C42,93.2,43.9,92.2,45,89.6z"/>
	<path class="st3" d="M58.5,107.1c-2.5-3.4-6-5.2-10.1-5.9c-1.4-0.2-2.7-0.2-4,0.1c-1.8,0.5-2.4,1.4-2.2,3.2
		c0.2,2.1,1.6,3.7,3.4,4.1c2,0.4,3.7-0.4,4.9-2.2c1-1.7,1.3-1.8,3.1-0.9C55.1,106.4,56.7,106.9,58.5,107.1z"/>
	<path class="st3" d="M61.1,167.2c-0.5-2.5-1.6-4.2-3.6-5.3c-0.5-0.3-1.1-0.6-1.6-1c-0.5-0.4-0.9-0.9-0.7-1.6c0.2-0.7,0.8-1,1.4-1.1
		c1.6-0.2,3.2-0.3,4.8-0.4c1.6-0.1,3.2-0.4,4.6-1.2c3-1.5,3.8-5.5,1.7-8.1c-0.6-0.7-1.4-1.2-2.3-1.4c-2.7-0.6-5.3-0.1-7.8,0.8
		c-1.8,0.6-3.6,1.4-5.4,2c-3.2,1.1-5,0.7-7.3-1.9c-1.3-1.5-2.6-1.4-3.5,0.4c-0.5,1-1,2-0.4,3.2c0.3,0.5,0.2,1.1,0.2,1.6
		c0,2-0.8,2.8-2.8,2.8c-0.9,0-1.9-0.1-2.8-0.1c-2.2,0.1-3,1.2-2.3,3.3c1,3.3,4.5,5.8,8,5.8c2.8-0.1,5.5-0.6,8.3-1.1
		c2.6-0.5,5,0,7.4,1.1C58.4,165.8,59.6,166.4,61.1,167.2z"/>
</g>
</svg>
