<svg id="Capa_1" data-name="Capa 1" xmlns="http://www.w3.org/2000/svg" viewBox="0 0 293.24 208.58"><defs><style>.cls-1{fill:#060505;}.cls-2{fill:#e0b893;}.cls-3{fill:#fff;}.cls-4{fill:#e53b07;}.cls-5{fill:#dfb893;}</style></defs><title>Butcher-right</title><path class="cls-1" d="M50.69,117.88a11.61,11.61,0,0,0-3.71-3,23.1,23.1,0,0,0-4.73-1.85A25.18,25.18,0,0,1,33,109a1.53,1.53,0,0,0-1.06-.28c-3.26.19-5.47-1.57-7.24-4a22.47,22.47,0,0,1-3.51-8.48,14.84,14.84,0,0,1-.28-1.48c-.07-.65-.14-1.18-1-1.27-.51-.06-.72-.65-1-1.06A88.6,88.6,0,0,1,14,83.75a28.09,28.09,0,0,1-2.62-9.4c-.11-.79,0-1.6-.72-2.25-.4-.37-.32-1.06-.39-1.62A333.45,333.45,0,0,1,8,32.05c0-.38,0-.76,0-1.14,0-.63-1.09-1-.56-1.64a7.8,7.8,0,0,1,2.39-2.36L11.65,26A154.46,154.46,0,0,1,49.8,13.88a165.4,165.4,0,0,1,34.75-2.82c15.26.41,30.17,2.73,44.41,8.51a109,109,0,0,1,10.29,5.06c.48.25.86.54.72,1.16s-.67.71-1.19.64-1-.24-1.47-.31a32.26,32.26,0,0,0-12,.55,2.34,2.34,0,0,0-.49.23,4,4,0,0,0,1.62,1,69.34,69.34,0,0,1,11,7.27,5.16,5.16,0,0,1,2,4.94c-.63,6.08-1.43,12.12-2.61,18.12a148.2,148.2,0,0,1-10.94,34.62A89.63,89.63,0,0,1,120.28,103c.08.55.55.36.73.57,4.81,5.56,9.65,11.09,12.52,18a32.61,32.61,0,0,1,2.91,13.35c-.17,7-3,12.49-9.2,16.06-.26.15-.61.2-.67.67.77.45,1.58.9,2.35,1.4,5.2,3.39,7.24,8.68,5.73,14.74a25,25,0,0,1-4.07,8.45,38,38,0,0,1-6.46,7.11,1.73,1.73,0,0,0-.56,2.25c1.39,4.11,2.7,8.25,4,12.37a4.06,4.06,0,0,0,3.28,3c1.05.19,2.08.5,3.12.74.59.13,1.19.39,1.76-.16a.78.78,0,0,1,1,0,1,1,0,0,1,.35,1.18,3.85,3.85,0,0,1-.61,1.15c-2.69,3.32-5.75,6.16-9.85,7.67-.23.08-.63.17-.64.29-.19,1.68-1.83,1.76-2.8,2.55a28.93,28.93,0,0,1-3.14,2.08c-.64.39-1.26.31-1.49-.49a2.53,2.53,0,0,0-1-1.31,138.94,138.94,0,0,1-17-16.63c-.75-.84-1.43-.58-2.19-.4-4.89,1.16-9.78,2.35-14.67,3.52l-37,8.86-2.2.56a10.49,10.49,0,0,0,3,1.43c.5.24,1.12.38,1.2,1.07s-.53,1.08-1.07,1.39a19.34,19.34,0,0,1-6.76,2.25,35.35,35.35,0,0,1-15-.67,14.46,14.46,0,0,1-5.73-2.76c-1.69-1.4-1.76-2-.41-3.75,2.56-3.28,5.15-6.53,7.71-9.79.19-.24.48-.44.42-.9-1.07-.33-2.21-.6-3.28-1a20.06,20.06,0,0,1-8.08-6.34A37.25,37.25,0,0,1,9.7,177.34a63,63,0,0,1,2.75-41.21,34.36,34.36,0,0,1,6.1-9.71,20,20,0,0,1,8.76-6,2.54,2.54,0,0,1,.72-.24c2.54,0,5.09-.86,7.61.06a3.26,3.26,0,0,0,2,.06c3-.7,6.11-1.42,9.19-2C48,118.12,49.17,118.06,50.69,117.88Zm52.43,1.51a2.89,2.89,0,0,0-1.74.25,17,17,0,0,1-6.14.66,17.71,17.71,0,0,1-10.13-5,2.06,2.06,0,0,0-2.33-.61A40.57,40.57,0,0,1,78,115.85a52.14,52.14,0,0,1-11.21,1.27c-.52,0-1,0-1-.76s.48-.73,1-.76c1.5-.08,3-.14,4.51-.29a68,68,0,0,0,12-2.35,1.7,1.7,0,0,1,2,.52,9.16,9.16,0,0,0,.93.94,14.8,14.8,0,0,0,17.22,2.77,31.77,31.77,0,0,0,10.7-8.76c5.56-6.71,9.39-14.39,12.75-22.35a2,2,0,0,0,0-1.78c-.63-1.37-1.18-2.78-1.79-4.16a6,6,0,0,1-.36-3.88c1.37-6.12,2.82-12.23,4.61-18.24a21.91,21.91,0,0,1,3.17-6.61c.88-1.21,1.63-1.52,2.68-1.14.33.12.56.56,1.12.19.54-3.62.92-7.35,1.34-11.08a2.67,2.67,0,0,0-1.08-2.7,66.7,66.7,0,0,0-13.68-8.63,3.75,3.75,0,0,0-2.9-.23A85,85,0,0,0,105.49,34a99,99,0,0,1-8.95,4.41,29.71,29.71,0,0,1-11,2.2,34.39,34.39,0,0,1-10.14-1.92c-5.25-1.61-10.12-4.12-15.07-6.42a57.65,57.65,0,0,0-25.52-5.6,132.76,132.76,0,0,0-16.3,1.4,67.06,67.06,0,0,0-7.56,1.54c-.58.15-1.2.27-1.18,1.17.06,2.46,0,4.91,0,7.37,0,.94.46,1.17,1.3,1.13a33.35,33.35,0,0,1,4.89.21,16.2,16.2,0,0,1,11.09,5.77,23.11,23.11,0,0,1,5.4,14c.2,3.44.42,6.88.72,10.31a60.46,60.46,0,0,0,8.7,25.82c1,1.73,2.14,3.41,3.23,5.1.83,1.3.71,1.47-.37,2.63A9,9,0,0,1,41.32,105a1.38,1.38,0,0,1-2-.78c-.68-1.41-1.44-2.79-2.17-4.18-.17-.33-.28-.74-.83-.55,0,.17-.08.35-.1.54-.27,2.42-.31,4.9-1.7,7-.49.76,0,1.17.63,1.48a29.76,29.76,0,0,0,6.3,2.5,35.31,35.31,0,0,1,5.16,1.77c2.07.91,3.69,2.63,6,3.18.45.1.64.62.74,1,.3,1.21,1.08,1.46,2.23,1.45a7.1,7.1,0,0,1,5,1.73c4.07,3.66,7.61,7.69,9.26,13a2.2,2.2,0,0,0,1.47,1.53,35.34,35.34,0,0,0,22,1.56,14.59,14.59,0,0,0,7.21-3.89,3.38,3.38,0,0,0,1.14-3.17,13.29,13.29,0,0,1,1.07-8.39A2.53,2.53,0,0,0,103.12,119.39Zm-52.51.35c4,5.61,5.37,8.15,6.34,12.27.66,2.8,1.09,5.66,1.68,8.47a193.25,193.25,0,0,0,5.06,20.42,136.07,136.07,0,0,0,11.75,25.83,92.66,92.66,0,0,0,7.8,11.54,1.88,1.88,0,0,0,2.23.79c2.73-.74,5.5-1.29,8.24-2,2.91-.76,6-1.11,8.75-2.27,9.06-3.79,17.33-8.82,24-16.17a26.47,26.47,0,0,0,6.3-10.6c1.08-3.87.85-7.58-1.78-10.87a11.8,11.8,0,0,0-5-3.64,2,2,0,0,1-1.35-1.4,55.17,55.17,0,0,0-7.85-14.94,47,47,0,0,0-10-10.67,7.91,7.91,0,0,0-3.64-1.83,27.32,27.32,0,0,0,.13,5.37,2.38,2.38,0,0,1-.46,1.89c-2.18,3.19-5.4,4.86-9,5.88C85.71,140.14,77.74,139.06,70,136a2.48,2.48,0,0,1-1.48-1.82,23.47,23.47,0,0,0-1.83-4.53c-1.73-3.2-4.31-5.71-6.91-8.18a3.8,3.8,0,0,0-2.1-1.18C55.4,120,53.16,119.91,50.61,119.74ZM9.67,166.51a2.31,2.31,0,0,0,.59,0c3-1.08,6-2.14,9-3.26,2.35-.88,4.66-1.86,7-2.72,1-.34,1.13-.86.76-1.71-.08-.17-.15-.35-.22-.52Q23.41,149,20,139.77c-.27-.73-1-1.7.09-2.11s1.09.83,1.33,1.46c2,5.28,3.91,10.58,5.86,15.87,1.74,4.71,3.49,9.41,5.21,14.12.19.51.34.9,1,.9,2.38,0,4.79.15,7.07-.75a2.9,2.9,0,0,1,2.44-.14,25,25,0,0,0,.4-4.27q0-14.91.12-29.82a6.37,6.37,0,0,1,.1-1.31.67.67,0,0,1,.71-.5.65.65,0,0,1,.67.55,10.69,10.69,0,0,1,.08,1.5q-.06,9-.12,17.93c0,1.72.08,1.77,1.7,1.14,3.73-1.46,7.45-3,11.2-4.4.84-.32,1.1-.65.86-1.65-1.1-4.69-2-9.42-2.9-14.16a26.29,26.29,0,0,0-4.95-11.47c-.26-.34-.41-.83-.88-.92a26.49,26.49,0,0,0-3.82-.86c-3-.14-5.85.64-8.73,1.25a2.47,2.47,0,0,1-1.43.06c-5-1.59-9.52-.43-13.53,2.87a26.48,26.48,0,0,0-6.14,7.32c-6,10.45-7.51,21.82-6.79,33.62A2.42,2.42,0,0,0,9.67,166.51Zm111.69-59.38c-.13.64-.24,1-.28,1.37-1,8.61-2.08,17.23-3.14,25.85a3,3,0,0,0,.6,2.26,62.14,62.14,0,0,1,6.8,12.15c.11.26.1.65.61.71.43-.25.91-.55,1.4-.8.7-.36.85-.79.39-1.49s-.89-1.66-1.38-2.46a7.8,7.8,0,0,1-.14-8.88,7.1,7.1,0,0,0,.94-4.54,32.44,32.44,0,0,0-.48-3.93,14.27,14.27,0,0,1-.08-6.37c.36-1.55.87-3,2.53-3.75A55.5,55.5,0,0,0,121.36,107.13Zm-92,57.92c-.83.53-1.48.91-2.08,1.34A7.06,7.06,0,0,0,24,172.07c0,1.85,0,3.66,1.41,5.4a11.5,11.5,0,0,0,12.16,3.84A7.74,7.74,0,0,0,43,171.62c-.36-1.22-.56-1.41-1.68-1-2.6,1.06-5.3.86-8,.88a2,2,0,0,1-2.2-1.59C30.67,168.35,30,166.79,29.32,165.05Zm90.17-59.9L119,105l-1.35,1.79c-2.68,3.59-5.59,7-9.37,9.48a11.1,11.1,0,0,0-3.9,5.12c-.61,1.3-.54,1.34.68,2a24.11,24.11,0,0,1,4.92,3.46,48.74,48.74,0,0,1,5.37,5.57c.19.24.37.75.9.33C117.27,123.55,118.51,114.36,119.49,105.15ZM34.71,99.07c0-1.52.2-2.73-.41-3.68-1.29-2-2.74-3.9-4.13-5.83-.22-.31-.64-.72-.91-.46-1.05,1-1.6-.06-2.22-.51-1.6-1.14-3.12-.84-4,.91a5.91,5.91,0,0,0-.64,3.09,24.8,24.8,0,0,0,3.1,10.34,8,8,0,0,0,4,3.76c2.45.91,3.88.21,4.5-2.28A24.51,24.51,0,0,0,34.71,99.07Zm94.9,47.61a4,4,0,0,0,1.74-1.56,14.11,14.11,0,0,0,2.69-6,25.54,25.54,0,0,0-.63-12.28,33.21,33.21,0,0,0-3.44-8.08,2.48,2.48,0,0,0-1.23,1.68,11.09,11.09,0,0,0-.33,5.77c.8,4,1.25,8-1.12,11.82-1,1.58-.57,3.42.29,5C128.19,144.29,128.88,145.41,129.61,146.68ZM26.81,86.2c0-.18.05-.42,0-.53-2.47-2.7-5.09-5.2-8.59-6.55a3.52,3.52,0,0,0-1.85-.22,1.59,1.59,0,0,0-1.4,2.29,61.29,61.29,0,0,0,5,9.71c.17.28.38.56.72.51s.41-.4.49-.71C22,87.39,23.45,86.28,26.81,86.2Zm1.38,76.39c-.11-.3-.18-.67-.57-.65a3,3,0,0,0-.9.28c-5.12,2.07-10.29,4-15.52,5.8a6.7,6.7,0,0,0-1,.45.33.33,0,0,0-.16.47.6.6,0,0,0,.46.21,8.35,8.35,0,0,0,1.07-.35l9.05-3.22,6.75-2.38C27.69,163.08,28.08,163,28.19,162.59Zm17-5.87c4.76-1,9.14-3.07,13.81-4.18.43-.1.43-.37.38-.69s-.27-.55-.64-.43-1,.32-1.42.5l-9.6,3.77Z" transform="translate(-7.25 -11)"/><path class="cls-2" d="M103.12,119.39a2.53,2.53,0,0,1-.42,1.53,13.29,13.29,0,0,0-1.07,8.39,3.38,3.38,0,0,1-1.14,3.17,14.59,14.59,0,0,1-7.21,3.89,35.34,35.34,0,0,1-22-1.56,2.2,2.2,0,0,1-1.47-1.53c-1.65-5.36-5.19-9.39-9.26-13a7.1,7.1,0,0,0-5-1.73c-1.15,0-1.93-.24-2.23-1.45-.1-.42-.29-.94-.74-1-2.27-.55-3.89-2.27-6-3.18a35.31,35.31,0,0,0-5.16-1.77,29.76,29.76,0,0,1-6.3-2.5c-.59-.31-1.12-.72-.63-1.48,1.39-2.15,1.43-4.63,1.7-7,0-.19.07-.37.1-.54.55-.19.66.22.83.55.73,1.39,1.49,2.77,2.17,4.18a1.38,1.38,0,0,0,2,.78,9,9,0,0,0,3.41-1.91c1.08-1.16,1.2-1.33.37-2.63-1.09-1.69-2.2-3.37-3.23-5.1a60.46,60.46,0,0,1-8.7-25.82c-.3-3.43-.52-6.87-.72-10.31a23.11,23.11,0,0,0-5.4-14A16.2,16.2,0,0,0,16,39.48a33.35,33.35,0,0,0-4.89-.21c-.84,0-1.31-.19-1.3-1.13,0-2.46,0-4.91,0-7.37,0-.9.6-1,1.18-1.17a67.06,67.06,0,0,1,7.56-1.54,132.76,132.76,0,0,1,16.3-1.4,57.65,57.65,0,0,1,25.52,5.6c5,2.3,9.82,4.81,15.07,6.42A34.39,34.39,0,0,0,85.52,40.6a29.71,29.71,0,0,0,11-2.2A99,99,0,0,0,105.49,34,85,85,0,0,1,120,27.82a3.75,3.75,0,0,1,2.9.23,66.7,66.7,0,0,1,13.68,8.63,2.67,2.67,0,0,1,1.08,2.7c-.42,3.73-.8,7.46-1.34,11.08-.56.37-.79-.07-1.12-.19-1-.38-1.8-.07-2.68,1.14A21.91,21.91,0,0,0,129.38,58c-1.79,6-3.24,12.12-4.61,18.24a6,6,0,0,0,.36,3.88c.61,1.38,1.16,2.79,1.79,4.16a2,2,0,0,1,0,1.78c-3.36,8-7.19,15.64-12.75,22.35a31.77,31.77,0,0,1-10.7,8.76,14.8,14.8,0,0,1-17.22-2.77,9.16,9.16,0,0,1-.93-.94,1.7,1.7,0,0,0-2-.52,68,68,0,0,1-12,2.35c-1.5.15-3,.21-4.51.29-.53,0-1,0-1,.76s.47.75,1,.76A52.14,52.14,0,0,0,78,115.85a40.57,40.57,0,0,0,4.75-1.15,2.06,2.06,0,0,1,2.33.61,17.71,17.71,0,0,0,10.13,5,17,17,0,0,0,6.14-.66A2.89,2.89,0,0,1,103.12,119.39ZM77.69,96.13a10.44,10.44,0,0,0,2.39-5.39.93.93,0,0,1,.28-.65c1-.67.62-1.55.41-2.39-.86-3.46-1.76-6.93-2.64-10.39-.44-1.74-.45-1.77-2.27-1.51-6.51.94-13,1.84-19.52,2.86a42.82,42.82,0,0,0-7,1.26c-.84.28-1,.59-.55,1.32.13.21.25.43.37.65,1.68,3.29,3.88,6.3,5.25,9.76a.74.74,0,0,0,.71.51c.5,0,1,0,1.5,0,2.13-.14,4.24-.49,6.38-.45.48,0,1-.06,1.27.53a11.47,11.47,0,0,0,5.15,5c-.4.62-1,.5-1.42.6s-1.11.17-1.66.3a.69.69,0,0,0-.58.83c.08.45.45.57.83.61a2.09,2.09,0,0,0,.56,0L75,98.46c1.8-.26,3.6-.49,5.39-.78.54-.09,1.21-.29,1.07-1s-.68-.57-1.24-.52A4.89,4.89,0,0,1,77.69,96.13Zm35.4-.85c1-1.1,2.34-1.94,2.75-3.49.11-.44.63-.44,1-.34a16.72,16.72,0,0,0,3.93.23c1.33.06,1.52-.16,1.64-1.43.29-3.12.58-6.23.9-9.35.17-1.64,0-1.92-1.74-2-3.08,0-6.15-.24-9.21-.34-4.46-.15-8.91-.38-13.36-.53-1.17,0-1.45.19-1.54,1.36-.23,3.19-.44,6.37-.65,9.55-.09,1.4-.07,1.43,1.4,1.54,1.24.1,2.5.15,3.86.22-.34,1.74,1.07,2.75,1.73,4.06-.65.46-1.24,0-1.77.2-.3.08-.61.2-.64.59a.67.67,0,0,0,.45.73,4.38,4.38,0,0,0,1.47.26c3.5.23,7,.5,10.5.73a16.58,16.58,0,0,0,2.44-.07.6.6,0,0,0,.55-.66.59.59,0,0,0-.44-.55,6.33,6.33,0,0,0-1.29-.22A2.54,2.54,0,0,1,113.09,95.28ZM102,100.66c-6.34.53-11.54,3-14.89,8.7-.36.61-.13.91.31,1.24a2.42,2.42,0,0,0,1.62.34,14,14,0,0,0,6-1.57c.72-.34,1.27-.42,1.76.35a6.25,6.25,0,0,0,.9,1,6.11,6.11,0,0,0,8.5.27,7.45,7.45,0,0,0,2.38-4.37,4,4,0,0,0-2.16-4.83A9,9,0,0,0,102,100.66ZM89.58,128.07a11.27,11.27,0,0,0,6.3-2.71c.49-.4,1.37-.94.73-1.66s-1.18.13-1.69.54a8.22,8.22,0,0,1-8.41,1.64,13.53,13.53,0,0,1-4.82-2.82c-.4-.37-.9-.62-1.34-.2s0,.92.32,1.25A15.26,15.26,0,0,0,89.58,128.07Zm5-28.71a3.25,3.25,0,0,0,2.83-5.12c-.31-.47-.69-1.27-1.45-.74s-.1,1,.16,1.45a2.71,2.71,0,0,1,.24.52,1.75,1.75,0,0,1-2,2.37A2.72,2.72,0,0,1,92.69,97c-.3-.28-.63-.42-1-.11a.73.73,0,0,0,0,1.16A3.53,3.53,0,0,0,94.54,99.36Zm-41.45-28a1.27,1.27,0,0,0-1.25,1.52,2.09,2.09,0,0,0,2,1.9,1.82,1.82,0,0,0,1.68-1.7C55.45,72.25,54.17,71.34,53.09,71.37Zm2-3.87a3.52,3.52,0,0,0-1-1.35,1.26,1.26,0,0,0-1.81-.32A1.74,1.74,0,0,0,52.08,68a1.59,1.59,0,0,0,2,.76A1.83,1.83,0,0,0,55.06,67.5Zm3.33,2.43a1.36,1.36,0,0,0-1.28-1.17,1,1,0,0,0-1,1.07A1.18,1.18,0,0,0,57.32,71C58,71,58.24,70.48,58.39,69.93Z" transform="translate(-7.25 -11)"/><path class="cls-3" d="M50.61,119.74c2.55.17,4.79.28,7,.5a3.8,3.8,0,0,1,2.1,1.18c2.6,2.47,5.18,5,6.91,8.18a23.47,23.47,0,0,1,1.83,4.53A2.48,2.48,0,0,0,70,136c7.78,3.11,15.75,4.19,23.93,1.86,3.56-1,6.78-2.69,9-5.88a2.38,2.38,0,0,0,.46-1.89,27.32,27.32,0,0,1-.13-5.37,7.91,7.91,0,0,1,3.64,1.83,47,47,0,0,1,10,10.67,55.17,55.17,0,0,1,7.85,14.94,2,2,0,0,0,1.35,1.4,11.8,11.8,0,0,1,5,3.64c2.63,3.29,2.86,7,1.78,10.87a26.47,26.47,0,0,1-6.3,10.6c-6.68,7.35-15,12.38-24,16.17-2.78,1.16-5.84,1.51-8.75,2.27-2.74.71-5.51,1.26-8.24,2a1.88,1.88,0,0,1-2.23-.79,92.66,92.66,0,0,1-7.8-11.54A136.07,136.07,0,0,1,63.69,160.9a193.25,193.25,0,0,1-5.06-20.42c-.59-2.81-1-5.67-1.68-8.47C56,127.89,54.61,125.35,50.61,119.74Zm39.13,43a10.23,10.23,0,0,0-4.49,6.78c-.15.8-.28,1.5.41,2.06a2,2,0,0,0,2.15.11,22,22,0,0,0,2.53-1.25,13.1,13.1,0,0,1,10.51-1.39,24.35,24.35,0,0,0,6.89.78c4.87-.12,8.26-3.74,9.55-7.35a4.14,4.14,0,0,0-3.37-5.75,5.89,5.89,0,0,0-2-.08,7.66,7.66,0,0,1-1.51.09c-1.19,0-1.48-.55-.76-1.47a1.67,1.67,0,0,0,.44-1.37,9.88,9.88,0,0,0-1.6-4.56c-.87-1.19-2-2.11-3.48-1.84s-3.13.18-3.39,2.25c0,.2-.3.39-.48.56a3.23,3.23,0,0,1-3.52.53c-1.89-.69-3.77-1.38-5.65-2.09a17.15,17.15,0,0,0-8.64-1.25,6.32,6.32,0,0,0-5.62,5c-1,4,.53,7.08,4.31,8.68a13.89,13.89,0,0,0,3.07.89C86.56,162.42,88.12,162.41,89.74,162.76Z" transform="translate(-7.25 -11)"/><path class="cls-3" d="M9.67,166.51a2.42,2.42,0,0,1-.14-.51c-.72-11.8.79-23.17,6.79-33.62a26.48,26.48,0,0,1,6.14-7.32c4-3.3,8.49-4.46,13.53-2.87a2.47,2.47,0,0,0,1.43-.06c2.88-.61,5.72-1.39,8.73-1.25a26.49,26.49,0,0,1,3.82.86c.47.09.62.58.88.92a26.29,26.29,0,0,1,4.95,11.47c.86,4.74,1.8,9.47,2.9,14.16.24,1,0,1.33-.86,1.65-3.75,1.44-7.47,2.94-11.2,4.4-1.62.63-1.71.58-1.7-1.14q0-9,.12-17.93a10.69,10.69,0,0,0-.08-1.5.65.65,0,0,0-.67-.55.67.67,0,0,0-.71.5,6.37,6.37,0,0,0-.1,1.31q-.07,14.91-.12,29.82a25,25,0,0,1-.4,4.27,2.9,2.9,0,0,0-2.44.14c-2.28.9-4.69.71-7.07.75-.66,0-.81-.39-1-.9C30.75,164.4,29,159.7,27.26,155c-2-5.29-3.88-10.59-5.86-15.87-.24-.63-.4-1.82-1.33-1.46s-.36,1.38-.09,2.11q3.43,9.27,6.85,18.53c.07.17.14.35.22.52.37.85.2,1.37-.76,1.71-2.36.86-4.67,1.84-7,2.72-3,1.12-6,2.18-9,3.26A2.31,2.31,0,0,1,9.67,166.51Z" transform="translate(-7.25 -11)"/><path class="cls-3" d="M121.36,107.13a55.5,55.5,0,0,1,7.77,10.12c-1.66.74-2.17,2.2-2.53,3.75a14.27,14.27,0,0,0,.08,6.37,32.44,32.44,0,0,1,.48,3.93,7.1,7.1,0,0,1-.94,4.54,7.8,7.8,0,0,0,.14,8.88c.49.8.87,1.67,1.38,2.46s.31,1.13-.39,1.49c-.49.25-1,.55-1.4.8-.51-.06-.5-.45-.61-.71a62.14,62.14,0,0,0-6.8-12.15,3,3,0,0,1-.6-2.26c1.06-8.62,2.09-17.24,3.14-25.85C121.12,108.13,121.23,107.77,121.36,107.13Zm-.84,25.3h0a11.71,11.71,0,0,0-.09,1.32c0,.53.14,1,.79,1.09s.89-.37,1.05-.87a3.7,3.7,0,0,0,.13-.74c.62-6.07,1.26-12.13,1.87-18.2.13-1.28-.21-2-.89-2-1,.11-1,1-1.05,1.73Z" transform="translate(-7.25 -11)"/><path class="cls-2" d="M29.32,165.05c.67,1.74,1.35,3.3,1.85,4.91a2,2,0,0,0,2.2,1.59c2.69,0,5.39.18,8-.88,1.12-.46,1.32-.27,1.68,1a7.74,7.74,0,0,1-5.46,9.69,11.5,11.5,0,0,1-12.16-3.84C24,175.73,24,173.92,24,172.07a7.06,7.06,0,0,1,3.23-5.68C27.84,166,28.49,165.58,29.32,165.05Z" transform="translate(-7.25 -11)"/><path class="cls-3" d="M119.49,105.15c-1,9.21-2.22,18.4-3.25,27.58-.53.42-.71-.09-.9-.33a48.74,48.74,0,0,0-5.37-5.57,24.11,24.11,0,0,0-4.92-3.46c-1.22-.63-1.29-.67-.68-2a11.1,11.1,0,0,1,3.9-5.12c3.78-2.46,6.69-5.89,9.37-9.48L119,105Z" transform="translate(-7.25 -11)"/><path class="cls-2" d="M34.71,99.07a24.51,24.51,0,0,1-.66,5.34c-.62,2.49-2,3.19-4.5,2.28a8,8,0,0,1-4-3.76,24.8,24.8,0,0,1-3.1-10.34,5.91,5.91,0,0,1,.64-3.09c.87-1.75,2.39-2,4-.91.62.45,1.17,1.5,2.22.51.27-.26.69.15.91.46,1.39,1.93,2.84,3.83,4.13,5.83C34.91,96.34,34.69,97.55,34.71,99.07Z" transform="translate(-7.25 -11)"/><path class="cls-4" d="M129.61,146.68c-.73-1.27-1.42-2.39-2-3.55-.86-1.63-1.27-3.47-.29-5,2.37-3.81,1.92-7.77,1.12-11.82a11.09,11.09,0,0,1,.33-5.77,2.48,2.48,0,0,1,1.23-1.68,33.21,33.21,0,0,1,3.44,8.08,25.54,25.54,0,0,1,.63,12.28,14.11,14.11,0,0,1-2.69,6A4,4,0,0,1,129.61,146.68Z" transform="translate(-7.25 -11)"/><path class="cls-2" d="M26.81,86.2c-3.36.08-4.77,1.19-5.71,4.5-.08.31-.13.66-.49.71s-.55-.23-.72-.51a61.29,61.29,0,0,1-5-9.71,1.59,1.59,0,0,1,1.4-2.29,3.52,3.52,0,0,1,1.85.22c3.5,1.35,6.12,3.85,8.59,6.55C26.86,85.78,26.8,86,26.81,86.2Z" transform="translate(-7.25 -11)"/><path class="cls-3" d="M28.19,162.59c-.11.43-.5.49-.85.61l-6.75,2.38-9,3.22a8.35,8.35,0,0,1-1.07.35.6.6,0,0,1-.46-.21.33.33,0,0,1,.16-.47,6.7,6.7,0,0,1,1-.45c5.23-1.78,10.4-3.73,15.52-5.8a3,3,0,0,1,.9-.28C28,161.92,28.08,162.29,28.19,162.59Z" transform="translate(-7.25 -11)"/><path class="cls-2" d="M45.2,156.72l2.53-1,9.6-3.77c.47-.18.94-.34,1.42-.5s.59.06.64.43,0,.59-.38.69C54.34,153.65,50,155.71,45.2,156.72Z" transform="translate(-7.25 -11)"/><path class="cls-1" d="M77.69,96.13a4.89,4.89,0,0,0,2.49,0c.56,0,1.13,0,1.24.52s-.53.91-1.07,1c-1.79.29-3.59.52-5.39.78l-7.81,1.08a2.09,2.09,0,0,1-.56,0c-.38,0-.75-.16-.83-.61a.69.69,0,0,1,.58-.83c.55-.13,1.11-.2,1.66-.3s1,0,1.42-.6a11.47,11.47,0,0,1-5.15-5c-.32-.59-.79-.52-1.27-.53-2.14,0-4.25.31-6.38.45-.5,0-1,0-1.5,0a.74.74,0,0,1-.71-.51c-1.37-3.46-3.57-6.47-5.25-9.76-.12-.22-.24-.44-.37-.65-.48-.73-.29-1,.55-1.32a42.82,42.82,0,0,1,7-1.26c6.49-1,13-1.92,19.52-2.86,1.82-.26,1.83-.23,2.27,1.51.88,3.46,1.78,6.93,2.64,10.39.21.84.57,1.72-.41,2.39a.93.93,0,0,0-.28.65A10.44,10.44,0,0,1,77.69,96.13Zm.41-5.61-12.26,1c1.61,2.73,3.64,4.32,6.53,4.61C75.55,96.45,78.11,94,78.1,90.52Z" transform="translate(-7.25 -11)"/><path class="cls-1" d="M113.09,95.28a2.54,2.54,0,0,0,2,.54,6.33,6.33,0,0,1,1.29.22.59.59,0,0,1,.44.55.6.6,0,0,1-.55.66,16.58,16.58,0,0,1-2.44.07c-3.5-.23-7-.5-10.5-.73a4.38,4.38,0,0,1-1.47-.26.67.67,0,0,1-.45-.73c0-.39.34-.51.64-.59.53-.16,1.12.26,1.77-.2-.66-1.31-2.07-2.32-1.73-4.06-1.36-.07-2.62-.12-3.86-.22-1.47-.11-1.49-.14-1.4-1.54.21-3.18.42-6.36.65-9.55.09-1.17.37-1.4,1.54-1.36,4.45.15,8.9.38,13.36.53,3.06.1,6.13.3,9.21.34,1.71,0,1.91.31,1.74,2-.32,3.12-.61,6.23-.9,9.35-.12,1.27-.31,1.49-1.64,1.43a16.72,16.72,0,0,1-3.93-.23c-.35-.1-.87-.1-1,.34C115.43,93.34,114.11,94.18,113.09,95.28ZM103.69,91c.94,2.52,2.82,3.6,5.69,3.44,2.37-.13,4-1.19,4.38-2.93Z" transform="translate(-7.25 -11)"/><path class="cls-1" d="M102,100.66a9,9,0,0,1,4.37,1.09,4,4,0,0,1,2.16,4.83,7.45,7.45,0,0,1-2.38,4.37,6.11,6.11,0,0,1-8.5-.27,6.25,6.25,0,0,1-.9-1c-.49-.77-1-.69-1.76-.35a14,14,0,0,1-6,1.57,2.42,2.42,0,0,1-1.62-.34c-.44-.33-.67-.63-.31-1.24C90.47,103.65,95.67,101.19,102,100.66Zm-12.72,8.63A21.64,21.64,0,0,0,95,107.54c1.75-.84,2-.76,3,.91a4.46,4.46,0,0,0,5,2.22,4.22,4.22,0,0,0,3.68-3.55c.43-2.82.59-3.72-2.94-4.44-2.94-.6-5.74.23-8.4,1.47A12.47,12.47,0,0,0,89.29,109.29Z" transform="translate(-7.25 -11)"/><path class="cls-1" d="M89.58,128.07a15.26,15.26,0,0,1-8.91-4c-.37-.33-.83-.75-.32-1.25s.94-.17,1.34.2a13.53,13.53,0,0,0,4.82,2.82,8.22,8.22,0,0,0,8.41-1.64c.51-.41,1-1.28,1.69-.54s-.24,1.26-.73,1.66A11.27,11.27,0,0,1,89.58,128.07Z" transform="translate(-7.25 -11)"/><path class="cls-1" d="M94.54,99.36a3.53,3.53,0,0,1-2.84-1.29.73.73,0,0,1,0-1.16c.36-.31.69-.17,1,.11a2.72,2.72,0,0,0,1.64.82,1.75,1.75,0,0,0,2-2.37,2.71,2.71,0,0,0-.24-.52c-.26-.47-.83-1-.16-1.45s1.14.27,1.45.74a3.25,3.25,0,0,1-2.83,5.12Z" transform="translate(-7.25 -11)"/><path class="cls-1" d="M53.09,71.37c1.08,0,2.36.88,2.4,1.72a1.82,1.82,0,0,1-1.68,1.7,2.09,2.09,0,0,1-2-1.9A1.27,1.27,0,0,1,53.09,71.37Z" transform="translate(-7.25 -11)"/><path class="cls-1" d="M55.06,67.5a1.83,1.83,0,0,1-.94,1.3,1.59,1.59,0,0,1-2-.76,1.74,1.74,0,0,1,.21-2.21,1.26,1.26,0,0,1,1.81.32A3.52,3.52,0,0,1,55.06,67.5Z" transform="translate(-7.25 -11)"/><path class="cls-1" d="M58.39,69.93c-.15.55-.43,1.06-1.07,1a1.18,1.18,0,0,1-1.23-1.15,1,1,0,0,1,1-1.07A1.36,1.36,0,0,1,58.39,69.93Z" transform="translate(-7.25 -11)"/><path class="cls-1" d="M89.74,162.76c-1.62-.35-3.18-.34-4.7-.62a13.89,13.89,0,0,1-3.07-.89c-3.78-1.6-5.29-4.66-4.31-8.68a6.32,6.32,0,0,1,5.62-5,17.15,17.15,0,0,1,8.64,1.25c1.88.71,3.76,1.4,5.65,2.09a3.23,3.23,0,0,0,3.52-.53c.18-.17.46-.36.48-.56.26-2.07,2.07-2,3.39-2.25s2.61.65,3.48,1.84a9.88,9.88,0,0,1,1.6,4.56,1.67,1.67,0,0,1-.44,1.37c-.72.92-.43,1.42.76,1.47a7.66,7.66,0,0,0,1.51-.09,5.89,5.89,0,0,1,2,.08,4.14,4.14,0,0,1,3.37,5.75c-1.29,3.61-4.68,7.23-9.55,7.35a24.35,24.35,0,0,1-6.89-.78,13.1,13.1,0,0,0-10.51,1.39,22,22,0,0,1-2.53,1.25,2,2,0,0,1-2.15-.11c-.69-.56-.56-1.26-.41-2.06A10.23,10.23,0,0,1,89.74,162.76ZM87,170a6.43,6.43,0,0,0,2.93-1.15c3-1.7,6.22-2.59,9.74-1.74a40.6,40.6,0,0,0,8.6.93c3,.08,7-3.29,7.51-6.61.26-1.8-.44-2.77-2.28-2.94-1-.08-2,0-3,0-2.49,0-3.73-1.71-2.71-4,.81-1.83,0-3.18-1-4.47a1.89,1.89,0,0,0-3.06,0,14.5,14.5,0,0,1-2.07,1.92,4.06,4.06,0,0,1-4,.73c-1.58-.6-3.21-1.07-4.76-1.74a19.41,19.41,0,0,0-9.16-1.69,4.42,4.42,0,0,0-4.3,3.53c-.9,3.59.27,5.87,3.7,7.12a19,19,0,0,0,6.13.86,24.22,24.22,0,0,1,2.42.29c.66.09,1.26.36,1.37,1.1s-.45,1-.89,1.34a7,7,0,0,1-1.28.8C88.55,165.45,87.46,167.39,87,170Z" transform="translate(-7.25 -11)"/><path class="cls-1" d="M120.52,132.43l1.83-17.63c.08-.74,0-1.62,1.05-1.73.68-.07,1,.68.89,2-.61,6.07-1.25,12.13-1.87,18.2a3.7,3.7,0,0,1-.13.74c-.16.5-.42.94-1.05.87s-.78-.56-.79-1.09a11.71,11.71,0,0,1,.09-1.32Z" transform="translate(-7.25 -11)"/><path class="cls-3" d="M78.1,90.52c0,3.47-2.55,5.93-5.73,5.62-2.89-.29-4.92-1.88-6.53-4.61Z" transform="translate(-7.25 -11)"/><path class="cls-3" d="M103.69,91l10.07.51c-.41,1.74-2,2.8-4.38,2.93C106.51,94.62,104.63,93.54,103.69,91Z" transform="translate(-7.25 -11)"/><path class="cls-4" d="M89.29,109.29a12.47,12.47,0,0,1,6-5.14c2.66-1.24,5.46-2.07,8.4-1.47,3.53.72,3.37,1.62,2.94,4.44a4.22,4.22,0,0,1-3.68,3.55,4.46,4.46,0,0,1-5-2.22c-1-1.67-1.21-1.75-3-.91A21.64,21.64,0,0,1,89.29,109.29Z" transform="translate(-7.25 -11)"/><path class="cls-4" d="M87,170c.48-2.63,1.57-4.57,3.87-5.68a7,7,0,0,0,1.28-.8c.44-.34,1-.68.89-1.34s-.71-1-1.37-1.1a24.22,24.22,0,0,0-2.42-.29A19,19,0,0,1,83.1,160c-3.43-1.25-4.6-3.53-3.7-7.12a4.42,4.42,0,0,1,4.3-3.53A19.41,19.41,0,0,1,92.86,151c1.55.67,3.18,1.14,4.76,1.74a4.06,4.06,0,0,0,4-.73,14.5,14.5,0,0,0,2.07-1.92,1.89,1.89,0,0,1,3.06,0c1,1.29,1.76,2.64,1,4.47-1,2.27.22,4,2.71,4,1,0,2-.06,3,0,1.84.17,2.54,1.14,2.28,2.94-.49,3.32-4.53,6.69-7.51,6.61a40.6,40.6,0,0,1-8.6-.93c-3.52-.85-6.69,0-9.74,1.74A6.43,6.43,0,0,1,87,170Z" transform="translate(-7.25 -11)"/><path class="cls-1" d="M262.45,205.14c.49,1.4,1,2.79,1.48,4.19.21.6.4,1.22-.17,1.71a1.57,1.57,0,0,1-1.89,0,12.61,12.61,0,0,1-2.81-2.11c-3-2.73-5.8-5.75-9-8.33-.84-.68-2.07-.88-2.55-2,0-.05-.07-.13-.12-.13-1.32,0-2.49.63-3.76.83-.56.08-.6.51-.76.91-.58,1.43-1.22,2.83-1.78,4.27a11.36,11.36,0,0,0-.57,2.15c-.42,2.36.28,3.81,2.44,4.83,2.84,1.35,5.73,2.62,8.59,3.93.7.32,1.73.44,1.54,1.52s-1.17.93-1.93,1.1c-2.19.5-4.43.33-6.64.59-5.29.61-10.6.83-15.92,1a6.35,6.35,0,0,1-5.31-2.45,58.94,58.94,0,0,1-7.45-11.92c-1.06-2.09-2-4.26-2.88-6.42a1.67,1.67,0,0,0-1.78-1.21c-4,0-7.92,0-11.87,0a42.26,42.26,0,0,1-9.35-1.09,18.57,18.57,0,0,1-9.19-5.26,34.12,34.12,0,0,1-7.66-13.41,60.67,60.67,0,0,1-2.66-23.07,56.19,56.19,0,0,1,5.28-21.08,27,27,0,0,1,5.57-8.24,1.38,1.38,0,0,0,.36-1.33,18.12,18.12,0,0,1,.86-5.66c1-3.88,3.85-5.71,7.48-6.63a11.43,11.43,0,0,1,7.6.86c2.76,1.23,5.56,2.43,7.77,4.61a3.36,3.36,0,0,0,2.53.92,12,12,0,0,0,4.68-1.26,10.39,10.39,0,0,0-3.37-2.75,23.72,23.72,0,0,0-4.81-1.9c-3.24-.86-6.41-1.85-9.1-4a1.47,1.47,0,0,0-1.05-.26c-3.19.17-5.37-1.54-7.11-4a22.75,22.75,0,0,1-3.62-9.25c-.15-.82-.05-1.7-1.25-1.89-.31,0-.58-.6-.82-1-1.86-2.71-3.27-5.67-4.87-8.53a15.19,15.19,0,0,1-1.54-4.16A130.81,130.81,0,0,1,172,61c-.7-9.5-1.15-19-1.17-28.54a7.22,7.22,0,0,0,0-.93c-.08-.58-1-1-.56-1.62a6.88,6.88,0,0,1,2.51-2.4c2.52-1.15,5-2.36,7.59-3.43A155.82,155.82,0,0,1,218.83,13.7a160.73,160.73,0,0,1,27.37-1.64c14.93.44,29.51,2.71,43.44,8.37,3.49,1.43,6.8,3.21,10.12,5,.46.25.86.54.69,1.15s-.67.67-1.19.62c-.36,0-.72-.14-1.09-.21-4.2-.83-8.35-.34-12.54.47.21.76.83.82,1.28,1.05A67.29,67.29,0,0,1,298,35.81a4.85,4.85,0,0,1,1.82,4.53c-.35,4.32-.91,8.61-1.61,12.88a155.7,155.7,0,0,1-9.13,33.36,97.06,97.06,0,0,1-7.54,15,2,2,0,0,0-.47,1c.18.3.59.15.78.37,4.88,5.73,9.86,11.41,12.63,18.58a32.21,32.21,0,0,1,2.45,11,21.88,21.88,0,0,1-.86,7,16.94,16.94,0,0,1-7.44,9.61,4.23,4.23,0,0,0-1.46,1c.69.41,1.35.79,2,1.2a12.68,12.68,0,0,1,6.29,8.75,14.83,14.83,0,0,1-.78,7.66,18.9,18.9,0,0,1-2.44,5,7.58,7.58,0,0,0-1.33,4.51c-.17,4.57-.36,9.14-.86,13.7a21,21,0,0,1-2.86,9.12c-3.19,5.05-7.65,8.26-13.85,8.17-3.26-.05-6.24-1.37-9.11-2.88l-1.45-.8c-.12-.24-.37-.44-.55-.24S262.27,204.89,262.45,205.14ZM296.7,50.58c.58-3.65.95-7.22,1.32-10.78a2.23,2.23,0,0,0-.87-2.2A64,64,0,0,0,283.75,29a4,4,0,0,0-3.19-.19,87.89,87.89,0,0,0-14.43,6.26c-2.19,1.16-4.35,2.36-6.62,3.35a30.75,30.75,0,0,1-13.69,2.75,39.11,39.11,0,0,1-10.46-2.31c-4.77-1.57-9.21-3.9-13.75-6a56.28,56.28,0,0,0-25.91-5.29c-3,.11-6,.36-9.06.68a73.29,73.29,0,0,0-11.87,1.95c-2.13.58-2,0-2,2.5,0,1.86,0,3.71,0,5.57,0,.46-.17,1,.3,1.41a27.38,27.38,0,0,1,4.79,0,16,16,0,0,1,12.51,6.62,22.51,22.51,0,0,1,4.39,10.69c.25,2,.31,3.94.43,5.91a79.56,79.56,0,0,0,2,15.06,69.12,69.12,0,0,0,9.91,21.23,6.06,6.06,0,0,1,.94,2c.08.33.08.65-.24.81-1,.51-1.59,1.51-2.68,2-2.82,1.15-3,1.13-4.37-1.61a9.6,9.6,0,0,0-2-3.12c-.14,1.18-.26,2.16-.37,3.14a10.46,10.46,0,0,1-1,3.55c-.6,1.24-.61,1.28.66,1.93a31.69,31.69,0,0,0,6.4,2.42,18.3,18.3,0,0,1,6.3,2.61,11.76,11.76,0,0,0,3.07,1.67,2.2,2.2,0,0,1,1.69,1.54c.24,1.06.91,1.26,1.89,1.25a7.19,7.19,0,0,1,5,1.62c3.93,3.54,7.59,7.32,9.12,12.6a3,3,0,0,0,2.1,2.09,35.67,35.67,0,0,0,16.58,2.15,19.88,19.88,0,0,0,10.18-3.65c1.61-1.23,2.61-2.6,2.17-4.89a10.49,10.49,0,0,1,.85-6.86,16.86,16.86,0,0,0,.73-2,18.73,18.73,0,0,1-4.55,1.12c-5.08.51-9.35-1.3-13-4.71a2.38,2.38,0,0,0-2.62-.67,59.58,59.58,0,0,1-9.81,2c-1.9.24-3.82.29-5.73.43-.69.06-1.06-.18-1-.94,0-.29-.12-.6.09-.92a1.83,1.83,0,0,1,.5-.13,59.74,59.74,0,0,0,16.79-2.62,1.72,1.72,0,0,1,2,.5,17.88,17.88,0,0,0,2.94,2.55,13.71,13.71,0,0,0,13.38,1.73,22.68,22.68,0,0,0,5.93-3.39,41.45,41.45,0,0,0,8.11-8.62,91.72,91.72,0,0,0,9.94-18.19,3.52,3.52,0,0,0-.07-3.31c-.52-1-.87-2-1.33-3.06a6.62,6.62,0,0,1-.35-4.36c1.32-5.72,2.66-11.43,4.3-17.07a27.17,27.17,0,0,1,2.89-6.6C293.69,50.26,294.46,50,296.7,50.58ZM213.47,119.2c0,.23-.07.3,0,.34a4.59,4.59,0,0,0,.33.44,29.77,29.77,0,0,1,5.87,13.45q1.8,10.51,4.59,20.82a128.19,128.19,0,0,0,14.91,33.4,71.41,71.41,0,0,0,5.76,8.19,1.65,1.65,0,0,0,2,.69c4.07-1.06,8.16-2,12.25-3a29.24,29.24,0,0,0,5.32-1.57,82.2,82.2,0,0,0,11.11-5.93,53.51,53.51,0,0,0,12.7-11c.42-.52,1-1,1.05-1.71.06-1.12.22-2.11,1.63-2.25.12,0,.24-.26.33-.42,1.64-3,2.85-6.08,2.43-9.54-.53-4.34-3.16-7.13-7-8.89a2.37,2.37,0,0,1-1.48-1.48,57.38,57.38,0,0,0-10.59-18.37,35.34,35.34,0,0,0-7.82-7.33,3.87,3.87,0,0,0-2.33-1,15.33,15.33,0,0,0,.16,5,2.67,2.67,0,0,1-.55,2,14.34,14.34,0,0,1-7.48,5.23c-8.56,2.76-16.94,1.92-25.16-1.46a2.19,2.19,0,0,1-1.38-1.62c-1.31-5-4.55-8.7-8.16-12.15a5.58,5.58,0,0,0-3.57-1.72C216.74,119.27,215.14,119.15,213.47,119.2Zm-8.21,39v-1.91l.18-30.6v-1.3c0-.73.14-1.47,1-1.45s.93.83,1,1.52c0,.37,0,.74,0,1.12q-.08,7.23-.14,14.46a19.41,19.41,0,0,1-.09,3.15c-.5,2.77-.19,5.55-.35,8.33-.08,1.46.26,1.65,1.6,1.13,3.69-1.42,7.35-2.88,11-4.28.83-.31,1.1-.61.87-1.59-.85-3.67-1.71-7.35-2.29-11.07A32.88,32.88,0,0,0,212,120.78a2,2,0,0,0-2.39-.94c-2.22.43-4.56.67-6.13-1.68a3.75,3.75,0,0,0-1.29-1,42.84,42.84,0,0,0-5.61-2.85,9.84,9.84,0,0,0-6.15-.65c-3,.78-5.15,2.32-6.18,5.46-1.27,3.88-.16,7.55.39,11.3,3.42,9.2,6.86,18.39,10.21,27.62a1.46,1.46,0,0,0,1.62,1.14c2-.11,4.09.08,6-.72A4,4,0,0,1,205.26,158.22ZM181.84,127.9c-6.42,6-11.63,27.07-9.14,36.67,3.67-1.1,7.22-2.5,10.8-3.8a2.44,2.44,0,0,0,1.79-1.88,3.26,3.26,0,0,1,1.49-2.46c1.83-.8,3.41-2.26,5.74-2.07a15.35,15.35,0,0,0-2.23-4.43,9,9,0,0,1-1.39-2.56q-2.9-7.81-5.79-15.63A22.45,22.45,0,0,1,181.84,127.9Zm100.41-21.36a2.49,2.49,0,0,0-.25.37c-1,8.59-2,17.18-3.12,25.76a4.18,4.18,0,0,0,.83,3.22,58.24,58.24,0,0,1,6.15,11c.19.43.22,1,.77,1.21.42-.24.83-.51,1.28-.72.9-.41.93-.94.42-1.74s-1.06-2-1.61-2.91a7,7,0,0,1,0-7.56,8.68,8.68,0,0,0,1.12-5.71c-.13-1.16-.28-2.33-.51-3.48a15.27,15.27,0,0,1-.1-5.35c.27-1.71.8-3.34,2.55-4.27A54.77,54.77,0,0,0,282.25,106.54Zm-1.88-2.44a5.12,5.12,0,0,0-1.62,1.71c-2.71,3.64-5.63,7.11-9.43,9.63a10.59,10.59,0,0,0-3.77,4.84c-.67,1.46-.63,1.49.76,2.22a23.26,23.26,0,0,1,4.11,2.83,50.3,50.3,0,0,1,5.49,5.53c.3.34.47.89,1.16.91C278.18,122.67,279.33,113.59,280.37,104.1Zm-75,59a6.78,6.78,0,0,0-.32-2.2c-.28-1.15-.37-1.23-1.52-.78a20,20,0,0,1-7.48,1c-1.36,0-2.4-.45-2.74-1.93a15.77,15.77,0,0,0-.61-1.75c-.46-1.28-.82-1.43-2-.91-1,.43-1.55,1.61-2.83,1.58-.17,0-.4.59-.5.93s0,.87-.17,1.27c-1,2.91,0,5.26,2,7.32A10.47,10.47,0,0,0,201,169.73,7.39,7.39,0,0,0,205.34,163.13Zm85.27-45a4.11,4.11,0,0,0-1.24,2.26,12.71,12.71,0,0,0,0,5.14c.73,3.93,1.15,7.81-1.2,11.45a3.33,3.33,0,0,0-.37,2.86,21.74,21.74,0,0,0,2.72,5.23,15.24,15.24,0,0,0,4.3-9.36C295.46,129.47,293.49,123.83,290.61,118.16Zm-93.76-20c-.21-1,.2-2.17-.43-3.18a61.89,61.89,0,0,0-4.11-5.7c-.13-.16-.28-.54-.54-.33-1.25,1-1.86-.14-2.63-.73a1.75,1.75,0,0,0-2.63.1,4.17,4.17,0,0,0-1.33,3.52,20.57,20.57,0,0,0,4.1,11.87,6.55,6.55,0,0,0,2.93,2.18c2.08.77,3.35.15,3.93-2A26.72,26.72,0,0,0,196.85,98.16ZM183.17,91c.73-3.25,2.21-5.5,6.14-5.27-2.59-2.67-5-5-8.11-6.44a5,5,0,0,0-1.77-.46A1.53,1.53,0,0,0,177.84,81,53.4,53.4,0,0,0,183.17,91Zm-10.36,76.25c.45.35.82-.05,1.19-.18,3.19-1.1,6.38-2.23,9.57-3.35l.86-.34a.47.47,0,0,0,.3-.72c-.14-.28-.41-.16-.64-.07l-10.76,3.85C173,166.6,172.65,166.79,172.81,167.28Zm34.6-11.94c.4.24.72-.06,1-.15,4.22-1.3,8.24-3.17,12.57-4.12.31-.07.37-.26.33-.53s-.22-.64-.56-.6a5.51,5.51,0,0,0-1.22.42c-3.66,1.43-7.32,2.86-11,4.33C208.21,154.85,207.58,154.69,207.41,155.34Z" transform="translate(-7.25 -11)"/><path class="cls-5" d="M296.7,50.58c-2.24-.6-3-.32-4.14,1.54a27.17,27.17,0,0,0-2.89,6.6c-1.64,5.64-3,11.35-4.3,17.07a6.62,6.62,0,0,0,.35,4.36c.46,1,.81,2.07,1.33,3.06a3.52,3.52,0,0,1,.07,3.31,91.72,91.72,0,0,1-9.94,18.19,41.45,41.45,0,0,1-8.11,8.62,22.68,22.68,0,0,1-5.93,3.39A13.71,13.71,0,0,1,249.76,115a17.88,17.88,0,0,1-2.94-2.55,1.72,1.72,0,0,0-2-.5,59.74,59.74,0,0,1-16.79,2.62,1.83,1.83,0,0,0-.5.13c-.21.32-.06.63-.09.92-.09.76.28,1,1,.94,1.91-.14,3.83-.19,5.73-.43a59.58,59.58,0,0,0,9.81-2,2.38,2.38,0,0,1,2.62.67c3.65,3.41,7.92,5.22,13,4.71a18.73,18.73,0,0,0,4.55-1.12,16.86,16.86,0,0,1-.73,2,10.49,10.49,0,0,0-.85,6.86c.44,2.29-.56,3.66-2.17,4.89a19.88,19.88,0,0,1-10.18,3.65,35.67,35.67,0,0,1-16.58-2.15,3,3,0,0,1-2.1-2.09c-1.53-5.28-5.19-9.06-9.12-12.6a7.19,7.19,0,0,0-5-1.62c-1,0-1.65-.19-1.89-1.25a2.2,2.2,0,0,0-1.69-1.54,11.76,11.76,0,0,1-3.07-1.67,18.3,18.3,0,0,0-6.3-2.61,31.69,31.69,0,0,1-6.4-2.42c-1.27-.65-1.26-.69-.66-1.93a10.46,10.46,0,0,0,1-3.55c.11-1,.23-2,.37-3.14a9.6,9.6,0,0,1,2,3.12c1.41,2.74,1.55,2.76,4.37,1.61,1.09-.44,1.69-1.44,2.68-2,.32-.16.32-.48.24-.81a6.06,6.06,0,0,0-.94-2A69.12,69.12,0,0,1,197.15,78a79.56,79.56,0,0,1-2-15.06c-.12-2-.18-3.94-.43-5.91a22.51,22.51,0,0,0-4.39-10.69,16,16,0,0,0-12.51-6.62,27.38,27.38,0,0,0-4.79,0c-.47-.43-.3-1-.3-1.41,0-1.86,0-3.71,0-5.57,0-2.5-.1-1.92,2-2.5a73.29,73.29,0,0,1,11.87-1.95c3-.32,6-.57,9.06-.68a56.28,56.28,0,0,1,25.91,5.29c4.54,2.11,9,4.44,13.75,6a39.11,39.11,0,0,0,10.46,2.31,30.75,30.75,0,0,0,13.69-2.75c2.27-1,4.43-2.19,6.62-3.35a87.89,87.89,0,0,1,14.43-6.26,4,4,0,0,1,3.19.19,64,64,0,0,1,13.4,8.57,2.23,2.23,0,0,1,.87,2.2C297.65,43.36,297.28,46.93,296.7,50.58Zm-66,46.21a13.88,13.88,0,0,1-2.69.59.9.9,0,0,0-.71,1.13.86.86,0,0,0,1,.7,8,8,0,0,0,1.1-.09l12.1-1.75a5.68,5.68,0,0,0,.92-.14c.51-.16.91-.47.8-1.07s-.57-.71-1.12-.74a6.19,6.19,0,0,1-2.34,0,8.67,8.67,0,0,0,2-4.82.75.75,0,0,1,.28-.65c1-.66.74-1.6.52-2.49-.93-3.66-1.91-7.29-2.78-11-.21-.86-.59-1.15-1.38-1.08-.56.05-1.11.12-1.66.2-3,.44-6,.83-9,1.33-5.35.9-10.77,1.32-16.06,2.56-1.38.32-1.53.57-.92,1.82.22.44.48.86.72,1.29,1.49,2.64,3,5.26,4.44,7.92.81,1.5.74,1.52,2.47,1.36,2.09-.18,4.18-.33,6.28-.49.48,0,.94-.12,1.23.5A10.9,10.9,0,0,0,230.72,96.79Zm33.79-2.6-.33.09c-.72.15-1.87-.27-1.86,1s1.12.89,1.87,1h.19c2.77.2,5.54.42,8.32.6,1.42.08,2.84.11,4.26.13a.78.78,0,0,0,.88-.76.83.83,0,0,0-.7-1c-.48-.11-1-.11-1.46-.21s-.89.27-1.1-.39A6.13,6.13,0,0,0,276.71,92c.19-.66.65-.65,1.15-.63,1.29,0,2.59.12,3.89.12s1.43-.13,1.58-1.48q.54-4.89,1.07-9.77c.11-1-.12-1.37-1.14-1.46-1.23-.11-2.46-.16-3.7-.21-6.36-.27-12.73-.52-19.09-.8-1.78-.08-1.86,0-2,1.74-.31,3.2-.18,6.43-.71,9.62-.16.91.41,1.19,1.2,1.24,1.11.06,2.22.15,3.33.24.35,0,.79,0,.76.52C263,92.31,263.85,93.09,264.51,94.19Zm-7.36,14.33c.49.23.64.67.91,1a6.61,6.61,0,0,0,11.51-2.64c.08-.29.08-.61.15-.91a4,4,0,0,0-2.23-5,9,9,0,0,0-5.58-.93c-5.73.78-10.48,3.15-13.43,8.39-.56,1-.37,1.65.73,1.89a7.56,7.56,0,0,0,3.31-.1A23.13,23.13,0,0,0,257.15,108.52Zm-6.7,18.61a10.52,10.52,0,0,0,7.22-3,1.69,1.69,0,0,0,.45-.58.89.89,0,0,0-.22-1.17.81.81,0,0,0-1,0c-.35.24-.68.54-1,.81a7.83,7.83,0,0,1-8.66,1.17,15.23,15.23,0,0,1-3.89-2.48c-.48-.42-1.07-.78-1.62-.17s-.12,1.14.36,1.58A14,14,0,0,0,250.45,127.13Zm8.93-31.5A3.8,3.8,0,0,0,258.22,93a1,1,0,0,0-1.2-.1.86.86,0,0,0-.25,1.15c.11.29.33.52.46.8a1.49,1.49,0,0,1-.25,1.88,1.57,1.57,0,0,1-1.89.25,12.39,12.39,0,0,1-1.07-.71.94.94,0,0,0-1.2,0,1,1,0,0,0-.07,1.35,4,4,0,0,0,4.15,1.34A3.38,3.38,0,0,0,259.38,95.63ZM213.63,72.71a2.29,2.29,0,0,0,2,2.24,2.13,2.13,0,0,0,2-1.85c0-1.07-1.27-2.08-2.65-2A1.48,1.48,0,0,0,213.63,72.71Zm0-5.71a2,2,0,0,0,1.86,2.12,1.56,1.56,0,0,0,1.69-1.55A2.66,2.66,0,0,0,215,65.38,1.5,1.5,0,0,0,213.6,67Zm6.92,2.92a1.79,1.79,0,0,0-1.63-1.45,1.24,1.24,0,0,0-1.06,1.3,1.5,1.5,0,0,0,1.39,1.43A1.4,1.4,0,0,0,220.52,69.92Z" transform="translate(-7.25 -11)"/><path class="cls-3" d="M213.47,119.2c1.67,0,3.27.07,4.87.18a5.58,5.58,0,0,1,3.57,1.72c3.61,3.45,6.85,7.15,8.16,12.15a2.19,2.19,0,0,0,1.38,1.62c8.22,3.38,16.6,4.22,25.16,1.46a14.34,14.34,0,0,0,7.48-5.23,2.67,2.67,0,0,0,.55-2,15.33,15.33,0,0,1-.16-5,3.87,3.87,0,0,1,2.33,1,35.34,35.34,0,0,1,7.82,7.33,57.38,57.38,0,0,1,10.59,18.37,2.37,2.37,0,0,0,1.48,1.48c3.84,1.76,6.47,4.55,7,8.89.42,3.46-.79,6.57-2.43,9.54-.09.16-.21.41-.33.42-1.41.14-1.57,1.13-1.63,2.25,0,.73-.63,1.19-1.05,1.71a53.51,53.51,0,0,1-12.7,11A82.2,82.2,0,0,1,264.45,192a29.24,29.24,0,0,1-5.32,1.57c-4.09,1-8.18,1.9-12.25,3a1.65,1.65,0,0,1-2-.69,71.41,71.41,0,0,1-5.76-8.19,128.19,128.19,0,0,1-14.91-33.4q-2.81-10.29-4.59-20.82A29.77,29.77,0,0,0,213.76,120a4.59,4.59,0,0,1-.33-.44S213.44,119.43,213.47,119.2Zm37.21,42.09a9.3,9.3,0,0,0-4.24,6.74c-.3,1.79.75,2.69,2.51,2.15a10.82,10.82,0,0,0,1.54-.63c.78-.37,1.54-.78,2.31-1.19a11.08,11.08,0,0,1,8.06-1.08,33.26,33.26,0,0,0,7.71.93,10.52,10.52,0,0,0,9.75-7.21c1.07-3.39-.73-5.95-4.29-6.09-.81,0-1.61.06-2.41.05-1.31,0-1.32,0-.63-1.26a1.49,1.49,0,0,0,.27-.87c-.19-2.12-.63-4.17-2.22-5.74a3.93,3.93,0,0,0-2.82-1.21c-1.23,0-2.2.71-3.28,1.09-.17.06-.24.41-.32.64a2.51,2.51,0,0,1-3.26,1.76,41.76,41.76,0,0,1-5.73-2.09,18.45,18.45,0,0,0-8.33-1.38,6.26,6.26,0,0,0-6.16,4.69c-1,3.69-.12,6.6,2.6,8.38a12.28,12.28,0,0,0,5.94,1.89A9.44,9.44,0,0,1,250.68,161.29Z" transform="translate(-7.25 -11)"/><path class="cls-3" d="M205.26,158.22a4,4,0,0,0-2.72.21c-1.94.8-4,.61-6,.72a1.46,1.46,0,0,1-1.62-1.14c-3.35-9.23-6.79-18.42-10.21-27.62-.55-3.75-1.66-7.42-.39-11.3,1-3.14,3.18-4.68,6.18-5.46a9.84,9.84,0,0,1,6.15.65,42.84,42.84,0,0,1,5.61,2.85,3.75,3.75,0,0,1,1.29,1c1.57,2.35,3.91,2.11,6.13,1.68a2,2,0,0,1,2.39.94,32.88,32.88,0,0,1,6.05,14.95c.58,3.72,1.44,7.4,2.29,11.07.23,1,0,1.28-.87,1.59-3.7,1.4-7.36,2.86-11,4.28-1.34.52-1.68.33-1.6-1.13.16-2.78-.15-5.56.35-8.33a19.41,19.41,0,0,0,.09-3.15q.07-7.23.14-14.46c0-.38,0-.75,0-1.12,0-.69-.06-1.49-1-1.52s-1,.72-1,1.45v1.3l-.18,30.6Z" transform="translate(-7.25 -11)"/><path class="cls-3" d="M181.84,127.9a22.45,22.45,0,0,0,1.27,3.84q2.88,7.81,5.79,15.63a9,9,0,0,0,1.39,2.56,15.35,15.35,0,0,1,2.23,4.43c-2.33-.19-3.91,1.27-5.74,2.07a3.26,3.26,0,0,0-1.49,2.46,2.44,2.44,0,0,1-1.79,1.88c-3.58,1.3-7.13,2.7-10.8,3.8C170.21,155,175.42,133.91,181.84,127.9Z" transform="translate(-7.25 -11)"/><path class="cls-3" d="M282.25,106.54a54.77,54.77,0,0,1,7.51,9.8c-1.75.93-2.28,2.56-2.55,4.27a15.27,15.27,0,0,0,.1,5.35c.23,1.15.38,2.32.51,3.48a8.68,8.68,0,0,1-1.12,5.71,7,7,0,0,0,0,7.56c.55,1,1,2,1.61,2.91s.48,1.33-.42,1.74c-.45.21-.86.48-1.28.72-.55-.24-.58-.78-.77-1.21a58.24,58.24,0,0,0-6.15-11,4.18,4.18,0,0,1-.83-3.22c1.1-8.58,2.09-17.17,3.12-25.76A2.49,2.49,0,0,1,282.25,106.54Zm2.73,7.93c0-.32,0-.88,0-1.43a.78.78,0,0,0-.72-.73.81.81,0,0,0-.89.51,5,5,0,0,0-.32,1.62c-.57,5.72-1.17,11.43-1.75,17.15,0,.3-.08.61-.08.92,0,.62.19,1.14.89,1.18s.87-.39,1-.93c.05-.3.08-.61.11-.92C283.78,126.13,284.37,120.41,285,114.47Z" transform="translate(-7.25 -11)"/><path class="cls-3" d="M280.37,104.1c-1,9.49-2.19,18.57-3.3,27.67-.69,0-.86-.57-1.16-.91a50.3,50.3,0,0,0-5.49-5.53,23.26,23.26,0,0,0-4.11-2.83c-1.39-.73-1.43-.76-.76-2.22a10.59,10.59,0,0,1,3.77-4.84c3.8-2.52,6.72-6,9.43-9.63A5.12,5.12,0,0,1,280.37,104.1Z" transform="translate(-7.25 -11)"/><path class="cls-5" d="M205.34,163.13a7.39,7.39,0,0,1-4.37,6.6,10.47,10.47,0,0,1-11.82-2.11c-2-2.06-3-4.41-2-7.32.14-.4.06-.86.17-1.27s.33-.93.5-.93c1.28,0,1.84-1.15,2.83-1.58,1.21-.52,1.57-.37,2,.91a15.77,15.77,0,0,1,.61,1.75c.34,1.48,1.38,1.93,2.74,1.93a20,20,0,0,0,7.48-1c1.15-.45,1.24-.37,1.52.78A6.78,6.78,0,0,1,205.34,163.13Z" transform="translate(-7.25 -11)"/><path class="cls-4" d="M290.61,118.16c2.88,5.67,4.85,11.31,4.18,17.58a15.24,15.24,0,0,1-4.3,9.36,21.74,21.74,0,0,1-2.72-5.23,3.33,3.33,0,0,1,.37-2.86c2.35-3.64,1.93-7.52,1.2-11.45a12.71,12.71,0,0,1,0-5.14A4.11,4.11,0,0,1,290.61,118.16Z" transform="translate(-7.25 -11)"/><path class="cls-5" d="M196.85,98.16a26.72,26.72,0,0,1-.71,5.77c-.58,2.11-1.85,2.73-3.93,2a6.55,6.55,0,0,1-2.93-2.18,20.57,20.57,0,0,1-4.1-11.87,4.17,4.17,0,0,1,1.33-3.52,1.75,1.75,0,0,1,2.63-.1c.77.59,1.38,1.75,2.63.73.26-.21.41.17.54.33a61.89,61.89,0,0,1,4.11,5.7C197.05,96,196.64,97.16,196.85,98.16Zm-4.57,4.31c-2.06-1.3-2.66-3.36-3.06-5.51s.15-2.88,2.19-3.51c.46-.15.83-.36.86-.84s-.37-.85-.9-1a2,2,0,0,0-1.61.21,4.31,4.31,0,0,0-2.47,3.67,10.29,10.29,0,0,0,2.77,7.63c.81.82,1.71,1.81,3,1.32s1.38-1.78,1.58-2.94a3.43,3.43,0,0,0,.06-.55c0-.53-.1-1-.72-1.13s-1,.35-1.13,1S192.89,101.89,192.28,102.47Z" transform="translate(-7.25 -11)"/><path class="cls-5" d="M183.17,91a53.4,53.4,0,0,1-5.33-10,1.53,1.53,0,0,1,1.59-2.18,5,5,0,0,1,1.77.46c3.15,1.4,5.52,3.77,8.11,6.44C185.38,85.53,183.9,87.78,183.17,91Z" transform="translate(-7.25 -11)"/><path class="cls-3" d="M172.81,167.28c-.16-.49.16-.68.52-.81l10.76-3.85c.23-.09.5-.21.64.07a.47.47,0,0,1-.3.72l-.86.34c-3.19,1.12-6.38,2.25-9.57,3.35C173.63,167.23,173.26,167.63,172.81,167.28Z" transform="translate(-7.25 -11)"/><path class="cls-5" d="M207.41,155.34c.17-.65.8-.49,1.2-.65,3.64-1.47,7.3-2.9,11-4.33a5.51,5.51,0,0,1,1.22-.42c.34,0,.51.27.56.6s0,.46-.33.53c-4.33,1-8.35,2.82-12.57,4.12C208.13,155.28,207.81,155.58,207.41,155.34Z" transform="translate(-7.25 -11)"/><path class="cls-3" d="M262.45,205.14c-.18-.25-.41-.57-.18-.82s.43,0,.55.24C262.7,204.75,262.58,205,262.45,205.14Z" transform="translate(-7.25 -11)"/><path class="cls-1" d="M230.72,96.79a10.9,10.9,0,0,1-4.84-4.92c-.29-.62-.75-.53-1.23-.5-2.1.16-4.19.31-6.28.49-1.73.16-1.66.14-2.47-1.36-1.43-2.66-3-5.28-4.44-7.92-.24-.43-.5-.85-.72-1.29-.61-1.25-.46-1.5.92-1.82,5.29-1.24,10.71-1.66,16.06-2.56,3-.5,6-.89,9-1.33.55-.08,1.1-.15,1.66-.2.79-.07,1.17.22,1.38,1.08.87,3.67,1.85,7.3,2.78,11,.22.89.51,1.83-.52,2.49a.75.75,0,0,0-.28.65,8.67,8.67,0,0,1-2,4.82,6.19,6.19,0,0,0,2.34,0c.55,0,1,.15,1.12.74s-.29.91-.8,1.07a5.68,5.68,0,0,1-.92.14l-12.1,1.75a8,8,0,0,1-1.1.09.86.86,0,0,1-1-.7.9.9,0,0,1,.71-1.13A13.88,13.88,0,0,0,230.72,96.79Zm9-6.66-11.92,1a7.62,7.62,0,0,0,5.08,4.37C236.58,96.33,239.42,94.2,239.72,90.13Z" transform="translate(-7.25 -11)"/><path class="cls-1" d="M264.51,94.19c-.66-1.1-1.55-1.88-1.49-3.11,0-.56-.41-.49-.76-.52-1.11-.09-2.22-.18-3.33-.24-.79,0-1.36-.33-1.2-1.24.53-3.19.4-6.42.71-9.62.17-1.76.25-1.82,2-1.74,6.36.28,12.73.53,19.09.8,1.24,0,2.47.1,3.7.21,1,.09,1.25.42,1.14,1.46q-.52,4.88-1.07,9.77c-.15,1.35-.26,1.48-1.58,1.48s-2.6-.08-3.89-.12c-.5,0-1,0-1.15.63a6.13,6.13,0,0,1-2.13,2.72c.21.66.73.32,1.1.39s1,.1,1.46.21a.83.83,0,0,1,.7,1A.78.78,0,0,1,277,97c-1.42,0-2.84,0-4.26-.13-2.78-.18-5.55-.4-8.32-.6h-.19c-.75-.12-1.86.11-1.87-1s1.14-.8,1.86-1Zm.24-3.57c1.08,2.56,3,3.59,5.8,3.38,2.25-.18,3.75-1.21,4.15-2.88Z" transform="translate(-7.25 -11)"/><path class="cls-1" d="M257.15,108.52a23.13,23.13,0,0,1-4.63,1.65,7.56,7.56,0,0,1-3.31.1c-1.1-.24-1.29-.9-.73-1.89,3-5.24,7.7-7.61,13.43-8.39a9,9,0,0,1,5.58.93,4,4,0,0,1,2.23,5c-.07.3-.07.62-.15.91a6.61,6.61,0,0,1-11.51,2.64C257.79,109.19,257.64,108.75,257.15,108.52Zm-5.88-.37a15.88,15.88,0,0,0,5-1.55c1.74-.86,2.07-.72,3.09.94a4.39,4.39,0,0,0,4.87,2.18,4.55,4.55,0,0,0,3.43-4.12,2.56,2.56,0,0,0-2.23-3.21,9.65,9.65,0,0,0-4-.11A15,15,0,0,0,251.27,108.15Z" transform="translate(-7.25 -11)"/><path class="cls-1" d="M250.45,127.13a14,14,0,0,1-8.4-3.81c-.48-.44-.92-1-.36-1.58s1.14-.25,1.62.17a15.23,15.23,0,0,0,3.89,2.48,7.83,7.83,0,0,0,8.66-1.17c.33-.27.66-.57,1-.81a.81.81,0,0,1,1,0,.89.89,0,0,1,.22,1.17,1.69,1.69,0,0,1-.45.58A10.52,10.52,0,0,1,250.45,127.13Z" transform="translate(-7.25 -11)"/><path class="cls-1" d="M259.38,95.63a3.38,3.38,0,0,1-2.48,3.31,4,4,0,0,1-4.15-1.34,1,1,0,0,1,.07-1.35.94.94,0,0,1,1.2,0,12.39,12.39,0,0,0,1.07.71,1.57,1.57,0,0,0,1.89-.25,1.49,1.49,0,0,0,.25-1.88c-.13-.28-.35-.51-.46-.8a.86.86,0,0,1,.25-1.15,1,1,0,0,1,1.2.1A3.8,3.8,0,0,1,259.38,95.63Z" transform="translate(-7.25 -11)"/><path class="cls-1" d="M213.63,72.71A1.48,1.48,0,0,1,215,71.07c1.38,0,2.69,1,2.65,2a2.13,2.13,0,0,1-2,1.85A2.29,2.29,0,0,1,213.63,72.71Z" transform="translate(-7.25 -11)"/><path class="cls-1" d="M213.6,67a1.5,1.5,0,0,1,1.4-1.62,2.66,2.66,0,0,1,2.15,2.19,1.56,1.56,0,0,1-1.69,1.55A2,2,0,0,1,213.6,67Z" transform="translate(-7.25 -11)"/><path class="cls-1" d="M220.52,69.92a1.4,1.4,0,0,1-1.3,1.28,1.5,1.5,0,0,1-1.39-1.43,1.24,1.24,0,0,1,1.06-1.3A1.79,1.79,0,0,1,220.52,69.92Z" transform="translate(-7.25 -11)"/><path class="cls-1" d="M250.68,161.29a9.44,9.44,0,0,0-3-.43,12.28,12.28,0,0,1-5.94-1.89c-2.72-1.78-3.61-4.69-2.6-8.38a6.26,6.26,0,0,1,6.16-4.69,18.45,18.45,0,0,1,8.33,1.38,41.76,41.76,0,0,0,5.73,2.09,2.51,2.51,0,0,0,3.26-1.76c.08-.23.15-.58.32-.64,1.08-.38,2.05-1.1,3.28-1.09a3.93,3.93,0,0,1,2.82,1.21c1.59,1.57,2,3.62,2.22,5.74a1.49,1.49,0,0,1-.27.87c-.69,1.22-.68,1.24.63,1.26.8,0,1.6-.08,2.41-.05,3.56.14,5.36,2.7,4.29,6.09a10.52,10.52,0,0,1-9.75,7.21,33.26,33.26,0,0,1-7.71-.93,11.08,11.08,0,0,0-8.06,1.08c-.77.41-1.53.82-2.31,1.19a10.82,10.82,0,0,1-1.54.63c-1.76.54-2.81-.36-2.51-2.15A9.3,9.3,0,0,1,250.68,161.29Zm-2.08,6.88c1.51-.75,2.77-1.41,4.06-2a11.77,11.77,0,0,1,7.37-1.1,46.09,46.09,0,0,0,8.26,1.12,8.48,8.48,0,0,0,8-5.76c.65-2.09-.14-3.23-2.34-3.3-.93,0-1.86.07-2.78.07-2,0-2.79-.86-2.8-2.85a3.23,3.23,0,0,1,.23-1.63c.63-1.15.16-2.19-.36-3.17-.95-1.77-2.19-1.88-3.52-.38-2.29,2.56-4.05,3-7.28,1.89-1.8-.64-3.56-1.41-5.36-2.05a13.85,13.85,0,0,0-7.82-.79,4,4,0,0,0-2.33,1.41,5.33,5.33,0,0,0,1.72,8.07,11.85,11.85,0,0,0,4.64,1.16c1.61.09,3.21.24,4.8.42a1.4,1.4,0,0,1,.67,2.64,10.6,10.6,0,0,1-1.56,1A6.88,6.88,0,0,0,248.6,168.17Z" transform="translate(-7.25 -11)"/><path class="cls-1" d="M285,114.47c-.61,5.94-1.2,11.66-1.8,17.37,0,.31-.06.62-.11.92-.09.54-.37,1-1,.93s-.91-.56-.89-1.18c0-.31,0-.62.08-.92.58-5.72,1.18-11.43,1.75-17.15a5,5,0,0,1,.32-1.62.81.81,0,0,1,.89-.51.78.78,0,0,1,.72.73C285,113.59,285,114.15,285,114.47Z" transform="translate(-7.25 -11)"/><path class="cls-1" d="M192.28,102.47c.61-.58.49-1.18.6-1.71s.43-1.06,1.13-1,.73.6.72,1.13a3.43,3.43,0,0,1-.06.55c-.2,1.16-.32,2.46-1.58,2.94s-2.22-.5-3-1.32a10.29,10.29,0,0,1-2.77-7.63,4.31,4.31,0,0,1,2.47-3.67,2,2,0,0,1,1.61-.21c.53.16.93.44.9,1s-.4.69-.86.84c-2,.63-2.57,1.46-2.19,3.51S190.22,101.17,192.28,102.47Z" transform="translate(-7.25 -11)"/><path class="cls-3" d="M239.72,90.13c-.3,4.07-3.14,6.2-6.84,5.34a7.62,7.62,0,0,1-5.08-4.37Z" transform="translate(-7.25 -11)"/><path class="cls-3" d="M264.75,90.62l9.95.5c-.4,1.67-1.9,2.7-4.15,2.88C267.73,94.21,265.83,93.18,264.75,90.62Z" transform="translate(-7.25 -11)"/><path class="cls-4" d="M251.27,108.15a15,15,0,0,1,10.07-5.87,9.65,9.65,0,0,1,4,.11,2.56,2.56,0,0,1,2.23,3.21,4.55,4.55,0,0,1-3.43,4.12,4.39,4.39,0,0,1-4.87-2.18c-1-1.66-1.35-1.8-3.09-.94A15.88,15.88,0,0,1,251.27,108.15Z" transform="translate(-7.25 -11)"/><path class="cls-4" d="M248.6,168.17a6.88,6.88,0,0,1,3.61-5.25,10.6,10.6,0,0,0,1.56-1,1.4,1.4,0,0,0-.67-2.64c-1.59-.18-3.19-.33-4.8-.42a11.85,11.85,0,0,1-4.64-1.16,5.33,5.33,0,0,1-1.72-8.07,4,4,0,0,1,2.33-1.41,13.85,13.85,0,0,1,7.82.79c1.8.64,3.56,1.41,5.36,2.05,3.23,1.15,5,.67,7.28-1.89,1.33-1.5,2.57-1.39,3.52.38.52,1,1,2,.36,3.17a3.23,3.23,0,0,0-.23,1.63c0,2,.82,2.83,2.8,2.85.92,0,1.85-.1,2.78-.07,2.2.07,3,1.21,2.34,3.3a8.48,8.48,0,0,1-8,5.76,46.09,46.09,0,0,1-8.26-1.12,11.77,11.77,0,0,0-7.37,1.1C251.37,166.76,250.11,167.42,248.6,168.17Z" transform="translate(-7.25 -11)"/></svg>